<svg width="169" height="49" viewBox="0 0 169 49" fill="none" xmlns="http://www.w3.org/2000/svg">
<path d="M36.9399 15.5155L46.9945 12.6714L47.6971 22.1895C46.3216 19.5833 43.5068 17.9214 41.0287 17.9214C41.1969 20.1234 42.0342 21.8156 43.2079 23.5757C44.516 25.5397 45.7909 26.5897 47.899 27.3678L46.0224 33.7018L37.4407 36.2438L35.1273 26.3555C36.8354 29.0297 39.1154 30.5216 42.4008 30.5216C41.8289 28.5236 40.8906 27.0656 39.6534 25.4075C38.2779 23.5454 37.0706 22.5634 34.9962 21.6493L36.9399 15.5155Z" fill="white"/>
<path d="M53.0765 31.266C53.0765 31.266 59.6438 30.352 61.8229 27.5758C61.1202 30.7599 59.1766 35.3301 59.1766 35.3301H49.6564V15.0097L56.6273 12.6377C56.6273 12.6377 56.0256 21.7139 53.0765 31.266Z" fill="white"/>
<path d="M77.1732 34.9898L69.9671 35.6659C71.208 32.7538 71.7761 29.7397 71.7761 27.0958C67.3507 28.7539 63.5981 32.2778 63.5981 38.6459C63.5981 38.6459 61.3854 35.0237 61.3854 31.1598C61.3854 19.9496 69.8324 12.4976 69.8324 12.4976C71.2752 14.0877 74.0225 18.1858 75.7306 24.3159C77.1734 24.3159 78.3094 24.6218 78.9486 25.026C77.9768 25.2639 77.0386 25.5019 76.1004 25.736C76.7694 28.4517 77.1732 31.5678 77.1732 34.9898ZM70.169 18.8694C69.4999 19.6815 67.9224 22.0195 66.5171 25.7436C68.0906 25.1695 69.8362 24.7956 71.5443 24.5576C71.2416 21.5436 70.4007 19.3415 70.169 18.8694Z" fill="white"/>
<path d="M80.2495 15.5155L90.3037 12.6714L91.0067 22.1895C89.6312 19.5833 86.8164 17.9214 84.3383 17.9214C84.5065 20.1234 85.3438 21.8156 86.5174 23.5757C87.8256 25.5397 89.1001 26.5897 91.2082 27.3678L89.332 33.7018L80.7503 36.2438L78.4365 26.3555C80.1446 29.0297 82.4246 30.5216 85.71 30.5216C85.1419 28.5236 84.2001 27.0656 82.963 25.4075C81.5875 23.5454 80.3802 22.5634 78.3058 21.6493L80.2495 15.5155Z" fill="white"/>
<path d="M98.6574 12.5693V21.6455L102.208 22.5256V13.9895L107.706 12.6335V20.2216C107.706 26.2837 106.735 33.5998 102.444 38.17V24.9617C98.99 24.9617 96.9791 27.2657 96.9791 29.8719C96.9791 31.9039 97.4502 33.3958 98.6537 35.3259H93.0245V15.8856L98.6574 12.5693Z" fill="white"/>
<path d="M123.431 29.808L117.633 36.38L108.921 31.4359C110.196 29.0979 110.595 27.4058 110.595 24.5617C110.595 22.1557 110.061 20.6336 108.988 18.6355L114.419 12.7773L123.67 16.6375L119.446 25.1396C119.446 22.7336 118.609 19.8555 116.228 17.9595C115.223 19.8215 114.954 21.9895 114.954 23.4815C114.954 27.9535 116.594 31.6776 118.673 31.6776C121.054 31.67 123.431 29.808 123.431 29.808Z" fill="white"/>
<path d="M123.512 26.0159C123.512 20.6979 124.921 16.2636 128.775 12.6377L137.79 17.5819C137.79 26.726 135.144 32.0441 129.411 36.5463L125.658 34.1063C124.148 31.3 123.512 28.894 123.512 26.0159ZM127.467 26.1519C127.467 30.3519 129.175 32.8221 129.175 32.8221C129.175 32.8221 132.393 30.7221 132.393 24.456C132.393 20.4259 129.747 18.1219 129.747 18.1219C129.747 18.1219 127.467 21.0038 127.467 26.1519Z" fill="white"/>
<path d="M139.177 33.7702V15.3798L145.345 12.6377L152.618 17.2759C152.618 22.152 151.344 23.644 149.097 25.2681C151.31 27.8062 152.046 31.2622 152.046 37.0864L143.266 25.6382L147.793 20.9661L145.146 17.0719C143.438 20.6299 142.867 22.8621 142.867 26.9602C142.867 30.7523 143.371 32.8184 144.81 36.1724L139.177 33.7702Z" fill="white"/>
<path d="M158.629 30.2158C160.539 32.6218 165.23 30.1138 168.751 26.3217L163.252 36.7199C163.252 36.7199 158.225 33.5358 152.159 32.8598L157.018 23.3076L152.761 17.0076L164.056 11.7915L167.741 22.6618C164.961 19.2738 162.344 17.1058 158.827 19.7837L164.893 25.2717C159.332 25.2717 158.629 30.2158 158.629 30.2158Z" fill="white"/>
<path d="M10.2356 8.56424L10.4038 8.79325L10.4225 8.91684C10.5608 9.02589 10.7065 9.14222 10.8635 9.26944C11.3381 9.64749 12.0819 9.8765 12.6724 10.389C12.8443 10.5381 12.9863 10.7271 13.1208 10.927L13.1395 10.9052L13.1507 10.9707C13.3974 11.3414 13.6291 11.7522 13.9729 12.0648C13.9729 12.0648 13.9767 12.0685 13.9804 12.0721L14.0925 11.963L14.171 12.1412L14.1299 12.1957C14.6195 12.5701 15.2698 12.8064 15.7444 13.2499C16.2452 13.7188 16.5928 14.3658 17.1011 14.8529C17.6019 15.3364 17.9868 15.9362 18.4839 16.4233C18.9884 16.9176 19.5527 17.3429 20.0348 17.83C20.5394 18.339 21.0103 18.8551 21.4737 19.3386C21.8175 19.6985 22.281 19.9311 22.6808 20.1928L22.9387 20.2401L22.9163 20.3564C23.0172 20.4328 23.1106 20.5127 23.1929 20.6C23.4283 20.8544 23.5965 21.1452 23.746 21.4324L23.9142 21.2652L24.1234 21.3633L24.0225 21.5669L23.8581 21.6396C24.0001 21.9195 24.1384 22.1812 24.3103 22.3884C24.9681 23.1736 25.6071 23.6571 25.7118 23.9697C25.5623 23.5298 25.8164 22.97 26.2836 22.1921C26.5901 21.676 26.7097 20.9126 27.188 20.3455C27.6103 19.8439 28.2606 19.4804 28.7577 18.9969C29.2548 18.5134 29.8639 18.1645 30.3797 17.7537C30.9627 17.2884 31.3775 16.6705 31.9082 16.3724C31.9643 16.3397 32.0241 16.3106 32.0801 16.2815L32.1026 16.1143L32.4651 15.8562L32.3604 16.147C32.9883 15.8707 33.5564 15.7762 33.9226 15.8926C33.6012 15.7908 32.8874 15.5145 32.0839 14.8747C32.054 14.8529 32.0204 14.8275 31.9905 14.802H31.9755V14.7911C31.7587 14.6239 31.527 14.4458 31.2766 14.2568L31.2206 14.4203L31.1159 14.2677V14.1295C30.888 13.9551 30.6562 13.7733 30.4245 13.5697C30.346 13.5007 30.2713 13.4171 30.1966 13.3407C29.8079 12.9372 29.4678 12.4356 29.0081 12.0212C28.511 11.5704 27.8645 11.2215 27.3413 10.7307C26.8405 10.2618 26.4331 9.67294 25.9248 9.1822C25.424 8.69874 25.0839 8.05533 24.5869 7.56459C24.0823 7.07022 23.5479 6.61584 23.0658 6.12874C22.621 5.68162 22.0791 5.34356 21.6381 4.9437L21.6045 5.01277L21.4214 5.08911L21.2906 4.91462L21.3653 4.7365L21.4027 4.72196C20.9243 4.19851 20.6515 3.54056 20.2254 3.07891C19.6985 2.50457 19.0968 2.09744 18.7081 1.63578C18.0503 0.850608 17.4748 0.316252 17.3664 0C17.5159 0.439844 17.2655 0.999646 16.8021 1.77392C16.4956 2.2901 16.249 2.95168 15.7706 3.51875C15.3894 3.97314 14.8363 4.3112 14.3654 4.72923L14.5784 4.94007L14.4102 5.16908L14.2084 5.10365L14.1299 4.95097C13.6814 5.42353 13.3638 6.03423 12.8779 6.42318C12.8742 6.42681 12.8667 6.43045 12.8592 6.43408V6.54314H12.706C12.1641 6.92845 11.5624 7.172 11.084 7.441C10.2842 7.89175 9.62646 8.20437 9.17425 8.0626C9.3798 8.12803 9.67878 8.33886 10.0749 8.64785L10.2356 8.57151V8.56424ZM31.2692 16.4233L31.086 16.4487V16.0416L31.2355 15.838L31.3701 16.0634V16.267L31.2692 16.4196V16.4233ZM31.0225 15.1837L31.2056 15.1583L31.3888 15.231L31.1047 15.4636L30.9477 15.3655L31.0225 15.1873V15.1837ZM28.1672 16.3288L27.9841 16.1034L28.1934 16.0489L28.3279 16.4269L28.1709 16.3288H28.1672ZM30.3946 15.1401L30.4245 15.3182L30.2676 15.42L30.1106 15.3218L30.3946 15.1401ZM29.2921 14.3404L29.1352 14.3913L29.0828 14.2386L29.2398 14.1877L29.2921 14.3404ZM29.1202 12.77L29.2249 12.8718L29.1202 12.9736L29.0156 12.8718L29.1202 12.77ZM29.1426 14.8493L29.3258 14.8711L29.408 15.2491L29.1501 15.5072L29.0716 15.3291L29.094 15.151L28.9371 14.9511L29.1464 14.8457L29.1426 14.8493ZM28.952 14.0132L28.9296 14.1913L28.7465 14.0169H28.9558L28.952 14.0132ZM28.2644 15.3655H28.0551L27.8458 15.2164L27.7374 15.0129H27.9467L28.3653 15.1583L28.2644 15.3618V15.3655ZM28.227 11.9158L28.3316 12.0176L28.227 12.1193L28.1223 12.0176L28.227 11.9158ZM28.3578 14.2968L28.1747 14.3731L27.9915 14.3513L27.7524 14.0241L28.1149 13.8678L28.3541 14.2968H28.3578ZM27.8383 12.0975L27.9953 12.2466L27.786 12.2975L27.6552 12.123L27.8383 12.0939V12.0975ZM26.8629 20.6545L26.7321 20.5309L26.8629 20.4037L26.9937 20.5273L26.8629 20.6545ZM26.8928 18.5243L26.7097 18.3499L27.0198 18.1936V18.3462L26.8928 18.5243ZM26.8816 17.5102L26.6984 17.3357L26.6685 17.1067L26.8255 17.0049L27.1394 17.2557L26.8816 17.5138V17.5102ZM27.2067 16.416L27.0236 16.4415L26.8143 16.2924L26.9937 16.1143L27.1507 16.0634L27.3076 16.2124L27.2067 16.416ZM27.0909 15.5036L26.9339 15.4055L26.747 15.0274H26.9563L27.3001 15.3509L27.0946 15.5036H27.0909ZM27.0909 10.9379L27.1955 11.0397L27.0909 11.1415L26.9862 11.0397L27.0909 10.9379ZM26.7209 12.9445L26.9003 12.8173H27.1095L27.2927 12.9409L26.8778 13.199L26.6424 13.1263L26.7171 12.9481L26.7209 12.9445ZM24.8634 12.3811L24.7326 12.2538L24.8373 12.1521L24.9681 12.2793L24.8634 12.3811ZM24.8709 13.039L24.6878 13.0645L24.6355 12.9118L24.7924 12.8609L24.8709 13.039ZM24.5757 12.1048L24.5458 11.9267L24.699 11.774L24.7513 11.9267L24.5719 12.1048H24.5757ZM24.5719 14.1077L24.8298 13.8496L24.9905 14.1514L24.7065 14.4858L24.5757 14.3113V14.1077H24.5719ZM24.7887 17.1721L24.9232 17.3975L24.8186 17.4993L24.684 17.2739L24.7887 17.1721ZM24.9942 21.6832L24.8373 21.7341L24.7588 21.556L24.8074 21.1489H25.0167L25.2259 21.3488L24.9942 21.6796V21.6832ZM24.6168 20.4182L24.927 20.1092L25.1661 20.5382L25.0615 20.64L24.8261 20.5673L24.6168 20.4182ZM25.652 17.4411V17.0849L26.0407 17.0558L26.0183 17.2339L25.8127 17.5901L25.6557 17.4411H25.652ZM25.9099 14.8784L26.0668 15.0274L26.0444 15.2564L25.7865 15.5145L25.6557 15.34L25.9099 14.882V14.8784ZM25.7155 13.9405L25.8463 14.0169L25.7716 14.195L25.7155 13.9405ZM25.9547 14.2677L26.0594 14.1659L26.164 14.2677L26.0594 14.3695L25.9547 14.2677ZM25.8688 20.709L25.738 20.5345L25.9211 20.5091L26.078 20.6581L25.8688 20.7127V20.709ZM26.1154 19.4876L25.936 19.6658L25.7791 19.6149L25.9061 19.3859L26.1677 19.3313L26.1154 19.484V19.4876ZM25.9173 13.2753L25.7081 13.1772L25.6557 13.0245L25.8389 12.9481L26.179 13.1735L25.9211 13.2789L25.9173 13.2753ZM26.022 10.8144L26.1528 10.9888L25.9734 11.1161L25.7641 11.0688L25.581 10.8943L25.7865 10.7416L26.022 10.8144ZM25.7267 10.0837L25.6744 10.2364L25.5698 10.1346L25.5436 10.0074L25.7267 10.0801V10.0837ZM25.1774 19.5494L24.9942 19.4258L24.6018 19.3531L24.7027 19.1496L24.8858 19.1241L25.1213 19.1968L25.2521 19.3241L25.1774 19.5531V19.5494ZM25.0092 18.5861L24.7999 18.6879L24.8971 18.179L25.0241 18.0518L25.1549 18.2263L25.0017 18.5825L25.0092 18.5861ZM24.9344 16.4051L24.7513 16.2306V16.0271L24.9307 15.998L25.0877 16.1979L25.1437 16.4015H24.9344V16.4051ZM24.7326 9.73837L24.998 10.1419L24.8148 10.2182L24.6056 10.0692L24.5009 9.8656L24.7326 9.73473V9.73837ZM24.9008 10.9016L25.1101 10.9997L25.0316 11.127L24.6653 11.1815L24.4822 11.0579L24.8971 10.9016H24.9008ZM23.9216 14.2858L23.7684 14.4385L23.5591 14.2895L23.4769 14.0605L23.6301 13.9078L23.944 14.1077L23.9216 14.2858ZM24.0337 15.1474L23.9852 15.3509L23.7796 15.5545L23.675 15.3509L23.6974 15.1219L23.8245 14.9947L24.0337 15.1437V15.1474ZM23.5741 16.0634L23.7833 15.9616L23.9142 16.1361V16.3397L23.7871 16.5178L23.5778 16.4196L23.4993 16.2415L23.5741 16.0634ZM23.6264 18.3208L23.9627 18.0881L24.0674 18.2917V18.4444L23.9403 18.5716H23.7833L23.5741 18.4735L23.6226 18.3208H23.6264ZM23.6488 20.5018L23.6226 20.3237L23.7759 20.171L23.959 20.2946L24.1421 20.3164L24.2206 20.4946L23.6488 20.5018ZM23.9777 19.6112L23.7684 19.6658L23.5853 19.5931L23.66 19.4149L24.0225 19.2077L24.2057 19.2804L23.9739 19.6112H23.9777ZM24.03 17.3539L23.8506 17.532L23.6675 17.6083V17.4556L23.8469 17.3284L23.7422 17.1248L23.9254 17.0485L24.1085 17.1721L24.0337 17.3502L24.03 17.3539ZM23.8843 13.3989L23.7011 13.428L23.4918 13.228V13.0245L23.6451 12.8209L24.0113 13.0717L24.0898 13.2499L23.8843 13.4025V13.3989ZM23.746 7.84813L23.9814 7.97172L23.746 8.0008L23.5367 7.85176H23.746V7.84813ZM23.5853 9.90195L23.817 9.77108L24.0524 9.84379L23.9515 10.0473L23.7198 10.1782L23.4844 10.1055L23.5853 9.90195ZM23.9627 11.167L23.888 11.3451L23.6787 11.2469L23.5703 10.7925H23.7796L23.9665 11.1706L23.9627 11.167ZM23.6301 11.854L23.9702 11.8249L23.9964 12.003L23.8431 12.3593L23.6862 12.3084L23.447 11.9812L23.6264 11.854H23.6301ZM20.4534 9.78199L20.8458 10.0583L20.6403 10.3636L20.4572 10.4399L20.3525 10.2873L20.3226 9.95647L20.4497 9.77835L20.4534 9.78199ZM20.3413 6.81577L20.6515 6.60857L20.7076 6.91391L20.3712 6.99389L20.345 6.81577H20.3413ZM20.5655 15.4091L20.4086 15.46L20.3002 15.26L20.3525 15.1074L20.5095 15.0565L20.7449 15.231L20.5655 15.4091ZM20.2665 14.3731L20.4235 14.2713L20.5543 14.3949L20.4534 14.5476L20.2703 14.3731H20.2665ZM20.4908 13.4316L20.3338 13.3298L20.4347 13.1772L20.6179 13.1008L20.8271 13.1481L20.4908 13.4316ZM21.8773 16.307L21.668 16.3615L21.4326 16.2888L21.3541 16.1615L21.5335 16.0343H21.7428L21.8997 16.1325L21.8773 16.3106V16.307ZM21.47 14.9656L21.6755 14.8638L21.8848 15.0638L21.7577 15.4963L21.5223 15.5763L21.4662 15.3727L21.5671 15.1692L21.4625 14.9692L21.47 14.9656ZM22.3856 13.0281L22.621 12.9481L22.8303 13.0463L22.935 13.2462H22.7257L22.4902 13.2244L22.3856 13.0208V13.0281ZM22.6734 18.07L22.7519 18.2481L22.6248 18.4262L22.4678 18.3753L22.5201 18.2226L22.6734 18.07ZM22.5351 17.183L22.7406 17.0303L22.9499 17.1285L22.8229 17.4593L22.6136 17.412L22.5314 17.1866L22.5351 17.183ZM22.8976 19.335L22.7406 19.4368L22.5575 19.364L22.6323 19.1859L22.7892 19.0841L22.9462 19.1859L22.8939 19.3386L22.8976 19.335ZM22.9163 18.6007L22.7855 18.4771L22.8901 18.3753L23.0209 18.4989L22.9163 18.6007ZM22.7107 16.6014L22.5276 16.376L22.4977 16.147L22.8602 16.0416L23.0172 16.1434L22.7107 16.6014ZM22.7406 14.4712L22.5575 14.3985L22.479 14.2204V14.0677L22.6323 13.9151L22.8154 13.9878L23.0247 14.1877L22.7406 14.4712ZM22.9163 9.06951L22.7631 9.27308L22.6061 9.07315L22.5239 8.84414L22.8901 8.8914L22.92 9.06951H22.9163ZM22.6958 10.3127L22.4865 10.4145L22.4342 10.2618L22.6958 10.3091V10.3127ZM22.4043 9.93466L22.5612 9.83288L22.6921 9.85833L22.5127 10.0364L22.408 9.93466H22.4043ZM22.4342 7.8554L22.6136 7.72817L22.6921 7.90629L22.5127 8.28797L22.3781 8.0626L22.4267 7.85903L22.4342 7.8554ZM22.5575 11.9376H22.7668L22.9238 12.0357L23.0023 12.2139L22.793 12.2684L22.5837 12.2211L22.3744 12.0721L22.5538 11.9449L22.5575 11.9376ZM21.7091 5.91063L21.8138 6.01242L21.7091 6.1142L21.6045 6.01242L21.7091 5.91063ZM21.5858 6.64855L21.7689 6.72126L22.0081 7.04841L21.7764 7.27742L21.6942 7.04841L21.4027 6.72126L21.5858 6.64492V6.64855ZM21.8175 11.2869L21.612 11.4396L21.4288 11.3669L21.6082 11.087L21.4251 10.9125L21.5821 10.8107L21.9222 11.087L21.8213 11.2905L21.8175 11.2869ZM21.8773 12.0975L21.6718 12.4538L21.5148 12.2538L21.384 12.0794L21.541 11.9776H21.6979L21.8811 12.1012L21.8773 12.0975ZM21.8549 10.0692L21.754 10.2727L21.597 10.2255L21.5185 10.0473L21.6718 9.89468L21.8549 10.0692ZM21.8325 8.09168L21.6494 7.9172H21.8586L21.8362 8.09168H21.8325ZM21.4999 8.72782L21.7353 8.85141L21.8175 9.08042L21.7166 9.28398L21.5335 9.21128L21.3205 8.90957L21.4999 8.73145V8.72782ZM21.313 13.0136L21.4924 12.8355L21.911 13.0354L21.9409 13.2644L21.5783 13.4207L21.3952 13.3989L21.2121 13.2244L21.313 13.0208V13.0136ZM20.6777 12.2611L20.5992 12.083L20.7823 12.0575L20.8608 12.2357L20.6777 12.2647V12.2611ZM20.8421 8.20073L20.6066 8.2807L20.4235 8.15711L20.3936 7.9281L20.5468 7.72454L20.8384 8.05169V8.20437L20.8421 8.20073ZM20.8309 4.82738L20.7524 4.95461L20.3376 5.26359L20.2329 5.06003L20.6702 4.62382L20.8271 4.82375L20.8309 4.82738ZM20.3787 3.89317L20.3263 4.04584L20.2217 3.94406V3.84228L20.3787 3.89317ZM19.5639 10.3418L19.3808 10.2691L19.3247 9.91285L19.5079 9.88377L19.7209 10.1855L19.5677 10.3382L19.5639 10.3418ZM19.6761 10.9997L19.4443 11.2287L19.3958 11.4832L19.265 11.3087L19.3397 10.8761L19.5228 10.8471L19.6798 10.9961L19.6761 10.9997ZM19.5266 9.35305L19.2351 9.07678L19.1827 8.92411L19.3659 8.89503L19.549 9.01862L19.6275 9.19674L19.5266 9.34941V9.35305ZM19.2276 13.1335L19.4593 12.8536L19.5976 13.4861L19.4406 13.537L19.1267 13.2862L19.2313 13.1335H19.2276ZM19.463 15.5654H19.3061L19.1753 15.4418V15.2382L19.6424 15.3364L19.6686 15.4127L19.463 15.5654ZM19.6611 14.4494L19.4257 14.3258L19.3173 14.1223L19.549 13.9914L19.7583 14.0896L19.6574 14.4458L19.6611 14.4494ZM19.7545 13.3335L19.6499 13.2317L19.7545 13.1299L19.8592 13.2317L19.7545 13.3335ZM19.6088 4.6638L19.8442 4.88918L19.7396 4.99096L19.5041 4.76558L19.6088 4.6638ZM19.6761 5.93244L19.5751 6.23779L19.3659 6.13964L19.2313 5.91427L19.4668 5.8343L19.6761 5.93244ZM19.2762 2.74085L19.3546 2.91897L19.1715 2.94805L19.093 2.76993L19.2762 2.74085ZM17.2431 12.4501L17.1123 12.3265L17.0824 12.1484L17.2356 11.9958L17.3963 12.3992L17.2393 12.4501H17.2431ZM18.383 14.3404L18.1998 14.2168L18.383 14.1404L18.5922 14.2895L18.383 14.344V14.3404ZM18.6259 8.04806L18.4689 8.09895L18.3643 7.99717L18.6259 8.04442V8.04806ZM18.3531 6.93572L18.51 6.88483L18.6408 7.05932L18.5661 7.23744L18.4091 7.13565L18.3531 6.93209V6.93572ZM18.2297 12.4392L18.3344 12.2866L18.5698 12.2066V12.4102L18.2335 12.4392H18.2297ZM18.4241 13.4752L18.4465 13.2971L18.6259 13.119L18.6558 13.348L18.4241 13.4789V13.4752ZM18.6782 10.3527L18.5474 10.2291L18.652 10.1273L18.7828 10.2509L18.6782 10.3527ZM18.5773 5.93971L18.7343 6.08875L18.525 6.19053L18.3157 6.0415L18.5736 5.93608L18.5773 5.93971ZM18.2559 9.84742L18.3867 9.97101L18.282 10.0728L18.1512 9.9492L18.2559 9.84742ZM17.4374 8.86595L17.415 9.04407L17.258 8.89503L17.4412 8.86595H17.4374ZM17.2132 9.96011L17.3701 9.85833L17.3963 10.0364L17.2692 10.2146L17.0861 10.1419L17.2132 9.96374V9.96011ZM17.2991 10.8471L17.4823 10.8689L17.6392 11.0179L17.4337 11.1706V11.3233L17.3066 11.5523L17.0151 11.276L16.9628 11.1233L17.2991 10.8398V10.8471ZM16.1555 11.316L16.021 11.0906L16.1518 10.9634L16.2602 11.2142L16.1555 11.316ZM16.0098 10.0255L16.1892 9.84742L16.4283 10.3781L16.3536 10.5563L15.9051 10.2327L16.006 10.0292L16.0098 10.0255ZM14.0178 11.3378L13.8832 11.1124L13.9057 10.9343L14.0626 10.8325L14.1449 11.1597L14.0178 11.3378ZM15.3034 12.2102L15.1465 12.2611L14.9633 12.1375L15.1689 11.9848L15.3782 12.083L15.3034 12.2102ZM14.9259 11.0979L15.1352 11.196L15.0306 11.2978L14.9259 11.0943V11.0979ZM15.0941 9.90558L15.2511 10.1055L15.0418 10.2073L14.911 10.0837L14.8811 9.90558H15.0904H15.0941ZM14.5746 10.1128L14.3429 10.4436L14.1336 10.3454H13.872L13.8945 10.1709L13.9954 10.0183L14.3878 9.98919L14.5709 10.1128H14.5746ZM14.1635 8.21527L14.3205 8.36431L14.1112 8.46609L13.9019 8.31705L14.1635 8.21164V8.21527ZM14.1187 8.92411V8.94592L14.1897 8.87686L14.4252 8.975L14.3579 9.1713L14.1224 9.26944L14.0215 9.04043L14.0626 9.00408L13.8608 8.92775H14.1224L14.1187 8.92411ZM12.9115 10.4472L12.777 10.1855L13.0461 9.98919L13.2815 10.0873L12.9115 10.4472ZM12.9115 8.61513L13.0797 8.90957L12.9115 9.07315L12.6761 8.84414L12.9115 8.61513ZM11.6334 9.33488L11.5325 9.1713L11.667 8.975L11.6334 9.33488ZM11.4988 8.41884L11.7343 8.51698L11.8352 8.68056L11.5661 8.74599L11.2634 8.58241L11.4988 8.41884Z" fill="#FF4654"/>
<path d="M32.1778 31.7996L32.0246 31.8905L31.8901 31.6287L31.9274 31.4906C31.7518 31.2834 31.5462 31.0617 31.2884 30.8545C31.0791 30.6836 30.7838 30.5818 30.4699 30.4692L30.4437 30.4837L30.4064 30.4473C30.0551 30.3237 29.6888 30.182 29.3973 29.9275C28.9264 29.5168 28.7321 28.728 28.1976 28.2445C28.1528 28.2045 28.1042 28.1609 28.0556 28.1173L27.8874 28.1863L27.8202 27.9246H27.8351C27.4651 27.5865 27.0839 27.2485 26.6915 26.8886C26.2094 26.4451 25.5254 26.1798 25.0172 25.7036C24.5351 25.2528 24.2249 24.6058 23.7241 24.1332C23.2382 23.6752 22.4758 23.4789 21.9825 23.0063C21.4966 22.5411 20.9734 22.1085 20.4838 21.6359C19.998 21.167 19.6841 20.5272 19.2019 20.0547C18.7161 19.5821 18.4096 18.9387 17.935 18.4661C17.4491 17.9863 16.8063 17.6664 16.3392 17.1939C15.8533 16.7068 15.1956 16.3978 14.7321 15.9289C14.2463 15.4345 14.2052 14.5512 13.753 14.0822C13.2634 13.577 12.3814 13.4679 11.9366 13.0026C11.8918 12.9554 11.8507 12.9045 11.8058 12.8536L11.4059 13.2425L11.5405 12.9154L11.3387 12.7191L11.5741 12.6209L11.6489 12.6755C11.2901 12.2429 10.9948 11.7958 10.6585 11.4323C10.1427 10.8725 10.0194 10.0982 9.6382 9.65835C9.00659 8.92406 8.25539 8.61144 8.09469 8.29883C8.37499 8.84772 8.6366 9.6329 8.31519 10.4253C8.076 11.0179 7.63127 11.6831 7.1641 12.3047C6.9436 12.5991 6.61098 12.8136 6.27089 13.0281L6.32321 13.079L6.18867 13.2098L6.11019 13.1335C5.85979 13.2898 5.61313 13.4534 5.41131 13.6497C4.88809 14.1586 4.41719 14.7075 3.84912 15.111C3.59498 15.2891 3.36327 15.5035 3.13903 15.7107L3.35953 15.8271L3.09045 15.9579L2.98207 15.8525C2.6943 16.1142 2.41026 16.3469 2.09633 16.4668C1.45725 16.7104 0.717264 16.8267 0.15667 16.7358C0.556561 16.8267 1.10968 16.9576 1.63664 17.3865C2.08885 17.7537 2.3542 18.4807 2.92601 18.9823C3.39691 19.3931 3.85659 19.8911 4.39477 20.3745C4.71991 20.6654 5.2095 20.8071 5.65424 21.0143L5.64302 20.938L5.77757 20.7417L6.01302 20.6435L6.24847 20.7417L5.79252 21.0798C5.95322 21.1634 6.10645 21.2579 6.23725 21.3778C6.71936 21.8213 6.85017 22.6501 7.35844 23.1263C7.84055 23.5771 8.31519 24.0569 8.81599 24.5331C9.30184 24.9911 10.0493 25.2019 10.5426 25.6745C11.0285 26.1398 11.7087 26.4197 12.1945 26.8922C12.3477 27.0413 12.4972 27.1976 12.6505 27.3503L12.7065 27.2957L12.9083 27.492L12.8336 27.532C13.0952 27.801 13.3568 28.07 13.6222 28.3317C14.108 28.8043 14.5341 29.335 15.0087 29.8076C15.1133 29.913 15.203 30.0329 15.2815 30.1602L15.36 30.0838L15.4945 30.2147L15.3787 30.3274C15.6141 30.7491 15.7898 31.2216 16.1149 31.5451C16.6008 32.0322 17.3557 32.2467 17.8191 32.7156C17.9649 32.8647 18.1256 32.9992 18.2863 33.13L18.4545 32.9701L18.7572 33.0682L18.5218 33.2972L18.462 33.2682C18.7834 33.519 19.1085 33.7589 19.3776 34.0352C19.8672 34.5404 20.2484 35.1111 20.6931 35.5764C21.1902 36.0999 21.5751 36.6633 21.9974 37.1213C22.5132 37.6811 23.0102 38.1537 23.3877 38.5935C24.0193 39.3278 24.4753 39.9058 24.636 40.2148C24.3557 39.6659 24.0231 38.9134 24.3445 38.121C24.5836 37.5285 25.4171 37.1395 25.8842 36.5143C26.0636 36.2744 26.1944 35.9799 26.3252 35.6819L26.2953 35.6273L26.3514 35.6201C26.5121 35.2565 26.684 34.893 26.9643 34.6204C27.4875 34.1115 28.2612 33.8607 28.8292 33.4572C29.4683 33.0028 30.1746 32.8465 30.7801 32.6138C31.5948 32.3012 32.1405 32.0977 32.7048 32.3703C32.5478 32.294 32.3871 32.0795 32.1741 31.8105L32.1778 31.7996ZM4.47325 15.3327L4.54052 15.529L4.37234 15.6926L4.17053 15.4963L4.47325 15.3327ZM4.46951 19.7857L4.16679 19.8184V19.5567L4.43588 19.3604L4.7386 19.5239L4.46951 19.7857ZM4.50689 17.332L4.2378 17.2011L4.50689 17.0703L4.80961 17.103L4.50689 17.332ZM8.75246 10.1891L8.8571 10.2908L8.75246 10.3926L8.64781 10.2908L8.75246 10.1891ZM8.63286 11.1778L8.6665 11.2723L8.887 11.1814V11.4432L8.65155 11.5413V11.3632L8.58428 11.4323L8.53195 11.2796L8.6366 11.1778H8.63286ZM8.47589 18.7097L8.27408 18.448L8.50953 18.1535L8.61044 18.448L8.47589 18.7097ZM8.67771 19.5603L8.81225 19.822L8.64407 19.9856L8.50953 19.7239L8.67771 19.5603ZM7.0333 15.4672L7.57147 15.4018L7.63874 15.7289L7.43693 15.6635L7.20148 15.6308L6.99966 15.8271L6.86512 15.5653L7.0333 15.4672ZM7.26501 17.9209L7.5341 18.1826L7.635 18.4116L7.26501 18.5098L7.1641 18.2153L7.26501 17.9209ZM6.96229 17.2338V17.0375L7.13047 16.8085L7.19774 17.0703L6.96229 17.2338ZM5.68413 15.529L5.88595 15.3981H6.08776L6.2223 15.5944L6.1214 15.8234L5.88595 15.987H5.68413L5.54959 15.7907L5.68413 15.529ZM5.74767 19.982L5.64676 19.7529L5.71403 19.2949L5.94948 19.1968L6.1513 19.8511L5.74767 19.982ZM5.64676 18.5098L5.74767 18.2807L6.05039 18.5752L5.81494 18.6733L5.64676 18.5098ZM6.05039 17.4629L5.7813 17.332L5.44495 16.874L5.98312 16.6777L6.35311 17.1684L6.05039 17.4629ZM6.2223 14.4857L6.1214 14.3221L5.98685 14.1259L6.18867 13.9296L6.42412 14.224L6.2223 14.4857ZM7.42945 21.2288L7.23885 21.2906L7.17158 21.5341L7.23885 21.5996L6.96976 21.4687L6.80159 21.1743L7.07067 21.1088L7.20521 21.1525L7.23137 21.0979L7.50046 20.9671L7.43319 21.2288H7.42945ZM7.53036 19.822L7.26127 19.4949L7.46309 19.364L7.79944 19.6912L7.53036 19.822ZM7.76955 17.3029L7.5341 17.3356L7.29865 17.2375L7.46683 17.0739L7.83682 17.1066L7.76955 17.3029ZM8.47216 22.2466L8.30398 22.0176L8.6067 21.9849L8.80851 22.2466H8.47216ZM8.81973 22.6174L8.68518 22.7483L8.517 22.5847L8.65155 22.4538L8.81973 22.6174ZM8.6067 23.6207L8.33762 23.4898L8.53943 23.2935L8.87579 23.4244L8.6067 23.6207ZM8.887 21.3088L8.34883 21.4396L8.11338 21.6032L8.04611 21.276L8.24792 21.1452L8.887 21.1125V21.3088ZM8.5768 17.1066L8.30772 16.9758L8.40862 16.6813L8.71134 16.5177L9.01407 16.943L8.5768 17.1066ZM8.84589 15.6017L8.74498 15.4381L8.91316 15.34L9.08134 15.5035L8.84589 15.6017ZM9.08134 14.3912L9.01407 14.5875L8.87952 14.6529L8.64407 14.3585L9.08134 14.0641V14.3912ZM10.1614 11.3159L10.3296 11.6104H10.0605L9.89233 11.3159H10.1614ZM10.1913 13.9659L10.3931 14.2276H10.0568L9.88859 13.9986L10.1913 13.9659ZM9.95586 15.6344L10.0904 15.7653L9.95586 15.8961L9.82132 15.7653L9.95586 15.6344ZM9.75031 19.4985L9.98576 19.3349L10.2212 19.4331L10.2885 19.6294L10.0194 19.7602L9.9297 19.673V19.7748L9.69425 19.8075L9.88112 19.6257L9.75031 19.4985ZM9.88486 20.6763L10.3894 20.9707L10.2548 21.2324L9.95213 21.396L9.98576 21.1016L9.68304 20.6763H9.88486ZM9.88486 22.0503L10.3221 22.3448L10.3558 22.5738L10.2548 22.8028L10.2025 22.7737L10.0269 22.9445L9.82506 22.7483L9.97829 22.6537L9.94839 22.6392L9.64567 22.2139L9.88112 22.0503H9.88486ZM10.1876 23.8497L9.91849 23.7188L9.81758 23.4898L10.053 23.3917L10.3221 23.588L10.4567 23.8497H10.1876ZM10.4268 18.3825L9.82132 18.5788L9.65314 18.2844L9.92223 18.1535L10.225 18.1862L10.4604 18.0881L10.4268 18.3825ZM10.3595 17.2048L9.78769 17.172L10.0904 17.0739L10.2922 16.8122L10.5277 17.0412L10.3595 17.2048ZM10.3595 15.8961L10.2586 15.6017L10.3931 15.4708L10.5277 15.7326L10.3595 15.8961ZM10.9388 20.2291L10.8379 20.0656L11.1406 19.9674L11.4769 19.5748L11.5106 19.6221L11.7685 19.4985L11.8021 19.7275L11.5666 20.0874L11.5517 20.0692L11.5405 20.0983L11.0696 20.4254L10.935 20.2291H10.9388ZM11.7124 21.3088L11.4769 21.3415L11.376 21.1125L11.6115 21.0798L11.7124 21.3088ZM11.3387 24.3513L11.2041 24.2205L11.3387 24.0896L11.4732 24.2205L11.3387 24.3513ZM11.6339 22.5738L11.4321 22.7046L11.2303 22.5083L11.4657 22.1485L11.8357 22.3775L11.6339 22.5738ZM14.0706 18.6261L14.3734 18.7242L14.037 18.9205L14.0706 18.6261ZM12.6916 17.2157L12.927 17.3138L12.8597 17.5101L12.6579 17.641L12.4561 17.5101L12.6916 17.2157ZM12.2506 20.1928V19.9965L12.4187 19.7675L12.6878 20.0292L12.7887 20.2582L12.3515 20.4218L12.2506 20.1928ZM12.5159 24.0569L12.3814 23.926L12.5159 23.7952L12.6505 23.926L12.5159 24.0569ZM12.9756 25.3219L12.7065 25.4527V25.191L12.9756 25.0602V25.3219ZM12.8747 23.7188L12.6392 23.4244L12.8747 23.3917L13.1438 23.7843L12.8747 23.7188ZM12.9195 22.8137L12.7514 22.4538L13.2895 22.3884L12.9195 22.8137ZM13.525 26.0671L13.3419 25.9944L13.4129 25.889L13.6334 25.8526L13.525 26.0671ZM13.5923 21.6359L13.9623 21.4069L14.0295 21.7341L13.8277 21.7995L13.5923 21.6359ZM14.3285 26.8486L14.1828 26.7759L14.2276 26.6923L14.1192 26.7614L13.8501 26.5651L14.1192 26.3688L14.2874 25.8781L14.4219 26.4015L14.321 26.6305L14.2949 26.6487L14.4406 26.7069L14.3322 26.8486H14.3285ZM15.8272 26.9213H15.6067V26.7796H15.7898L15.8272 26.9213ZM15.3152 25.4637L15.2778 25.2492L15.4983 25.3219L15.6067 25.4637H15.3152ZM15.5655 26.3397L15.431 26.6014L15.2292 26.4051L15.3637 26.078L15.5655 26.3397ZM15.7823 22.7846L15.5469 22.8173L15.715 22.5229L15.7823 22.7846ZM15.4833 19.9347L15.5506 20.1964L15.4161 20.3927L15.2142 20.0656L15.4833 19.9347ZM14.9751 24.2241L15.1096 24.0932L15.2441 24.2241L15.1096 24.355L14.9751 24.2241ZM15.5655 29.4186L15.1956 29.0587L15.4646 28.9279L15.7001 29.1569L15.5655 29.4186ZM15.8346 27.7828L15.6141 27.9028L15.6814 27.9537V28.1681L15.5357 28.0954V27.9464H15.5319L15.2965 27.721L15.4646 27.4266L15.7001 27.3939L15.8683 27.5575L15.8346 27.7865V27.7828ZM19.3141 22.9518L19.3813 22.6247L19.7513 22.6574L19.5831 22.8864L19.3141 22.9518ZM19.4038 25.8199L19.6243 25.8562L19.5159 25.998H19.2954L19.4038 25.8199ZM18.7609 27.881L18.2564 27.7828L18.2228 27.5538L18.4246 27.4884L18.66 27.652L18.7609 27.881ZM18.4059 21.4105L18.3386 21.6723L18.1368 21.8031L18.1032 21.5741L18.305 21.1161L18.4059 21.4105ZM18.2041 19.7748L18.0023 19.8402L17.8677 19.7093L18.2041 19.7748ZM17.9985 22.392L18.234 22.4902L18.4022 22.7192L18.4358 22.9482L18.1667 23.079L17.9313 23.0463L17.7967 22.6537L17.9985 22.392ZM17.1726 26.387L17.3557 26.4597L17.3931 26.7069L17.1726 26.6705L17.0268 26.5287L17.1726 26.387ZM16.8063 27.8155L17.1091 27.7828V27.8592L17.2473 27.881L17.3221 28.0591L17.1763 28.1318L17.0306 28.0591V27.8883L16.8101 27.8155H16.8063ZM16.6232 18.368L16.9259 18.5316L16.6905 18.6297L16.455 18.597L16.3541 18.368H16.6232ZM16.6867 23.9333L16.4849 23.9987L16.4177 23.8024L16.6195 23.737L16.6867 23.9333ZM16.1523 26.0707V25.8562L16.2271 25.7145L16.7017 25.8562L16.6269 26.1761L16.1523 26.0707ZM17.1053 31.8432L16.8362 31.7124L16.6681 31.4833L16.9035 31.3852L17.139 31.4833L17.408 31.7451L17.1053 31.8432ZM17.2062 30.6327L16.9708 30.6L16.7353 30.371L17.0717 30.0438L17.3408 30.3056L17.4417 30.5346L17.2062 30.6327ZM17.722 24.4713V24.3295H17.9051L17.9425 24.4713H17.722ZM18.2863 29.0624L18.5554 29.3241L18.219 29.3895L18.0172 29.1278L18.2863 29.0624ZM18.5517 32.0104L18.1817 31.6506L18.518 31.4543L18.7535 31.7487L18.5517 32.0104ZM18.4171 30.8981L18.3498 30.6364L18.4171 30.3746L18.5853 30.2111L18.8544 30.3419L18.4171 30.8981ZM19.1085 21.1888L19.344 21.1561L19.5121 21.4505L19.4449 21.7123L19.2431 21.4505L19.1085 21.1888ZM19.4374 27.4957L19.6915 27.4593L19.6542 27.6738L19.5084 27.7792L19.3253 27.7065L19.2879 27.5284L19.4337 27.492L19.4374 27.4957ZM19.4935 32.0795L19.2916 31.8832L19.3253 31.6542L19.5271 31.4579L19.7962 31.3925L19.8298 31.6215L19.4935 32.0795ZM19.7476 24.1041L19.5794 23.9406L19.714 23.8097L19.8821 23.9733L19.7476 24.1041ZM20.1662 28.0627L19.983 27.99V27.8483H20.1662V28.0627ZM21.2948 24.1041L21.0594 24.3331L20.8239 24.4313L20.7903 24.2023L21.0257 23.9733L21.2612 23.8751L21.2948 24.1041ZM21.0781 27.2448V27.3866L20.9323 27.3139V27.1721L21.0781 27.2448ZM20.8912 22.3993L21.1266 22.89H20.8576L20.6894 22.661L20.8912 22.3993ZM20.5847 25.769L20.4838 25.54L20.6856 25.2783L20.7529 25.54L20.5847 25.769ZM21.1379 34.5295L20.9024 34.6277V34.366L21.1379 34.2678V34.5295ZM21.0743 30.2729L20.8725 30.4692V30.2074L21.1416 30.0766L21.0743 30.2729ZM20.7716 29.2587L20.9734 29.0624H21.1752L21.3771 29.2587L21.1752 29.455L20.7716 29.2587ZM21.3397 33.2209L21.2051 33.09L21.3733 32.9265L21.5079 33.0573L21.3397 33.2209ZM22.5692 26.7868L22.3338 26.885L22.2665 26.5578H22.5356L22.5692 26.7868ZM22.0348 23.8388L22.2703 23.7406L22.3039 24.0351L22.1694 24.3622L22.0348 24.1005V23.8388ZM22.0647 27.8664L22.2665 27.6701L22.4683 27.8664L22.3674 28.0954L22.1656 28.1609L22.0647 27.8664ZM22.5879 34.435L22.3861 34.3696L22.2852 34.1406L22.5543 34.0097L22.7561 34.1406L22.8234 34.3369L22.5879 34.435ZM22.6888 33.3554L22.5207 33.3881L22.5879 33.1264L22.8234 33.2245L22.6888 33.3554ZM23.9707 32.1122L23.5671 31.7196L23.5335 31.556L23.7689 31.4579L24.038 31.5888L24.1389 31.8832L23.9707 32.1122ZM24.1053 33.2245L23.9035 33.4208L23.5335 33.3881V33.1264L23.9707 32.832L24.1053 33.0282V33.2245ZM23.9184 28.2917L23.7839 28.1609L23.9184 28.03L24.053 28.1609L23.9184 28.2917ZM23.7203 25.0165L23.9221 25.2128L23.9894 25.4091L23.754 25.4418L23.5185 25.2128L23.7203 25.0165ZM23.5671 35.8418L23.5335 35.8091V35.5474L23.7353 35.3511L23.9707 35.4492L23.5671 35.8418ZM23.8698 34.6967L23.668 34.5005L23.7017 34.206H23.8362L24.2062 34.5659L23.8698 34.6967ZM24.7294 26.7868L24.6285 26.6232L24.7294 26.3942L25.2003 26.7868L25.1667 27.0813L24.9649 26.885L24.7294 26.7868ZM25.0994 27.8664L25.3348 28.0954L25.2339 28.3245L24.8639 27.9646L25.0994 27.8664ZM25.3573 30.0475L25.4245 30.2438L25.1891 30.3419L25.1555 30.1129L25.3573 30.0475ZM24.9163 34.7295L24.8826 34.5005L25.1854 34.0097L25.5553 34.5005L24.9163 34.7295ZM25.2526 33.4863H25.1181V33.2245L24.9163 32.8974L25.1181 32.7665L25.5553 33.061L25.2526 33.4863ZM25.4208 31.9486L25.0172 31.8178L25.0844 31.556L25.3199 31.327L25.5217 31.5233L25.5553 31.7523L25.4208 31.9486ZM25.4208 29.1314L25.3535 28.9352L25.5553 28.8697L25.6226 29.066L25.4208 29.1314ZM28.3135 30.2474L28.1453 30.411L28.0444 30.1166L28.3135 30.2474ZM25.9702 27.8664L26.2056 27.8337L26.3065 28.0627L26.542 28.2917L26.3065 28.3245L26.0711 28.0954L25.9702 27.8664ZM26.1907 33.1591H26.4598L26.6616 33.4208L26.3589 33.4535L26.1907 33.1591ZM26.7289 34.7949L26.4934 34.6967L26.5943 34.5332L26.7961 34.4023L26.897 34.6313L26.7289 34.7949ZM26.7289 32.1122L26.5607 31.9486L26.9307 31.5888L27.0652 31.7851L26.7289 32.1122ZM27.6034 33.0937L27.5698 32.8647L27.7379 32.6357L27.8725 33.0937H27.6034ZM27.6744 29.3605L27.5735 29.1314L27.8089 29.0333L28.0444 29.1314L28.078 29.3605L27.8762 29.4913L27.6744 29.3605ZM27.9397 32.0431V31.7814L28.2425 31.6178L28.4443 31.945L27.9397 32.0431ZM29.4571 30.1129L29.4907 30.3419L29.2553 30.3092L29.4571 30.1129ZM29.4907 31.6506L28.9526 31.4543L29.2553 31.3561L29.5916 31.4215L29.7598 31.6506H29.4907ZM30.6343 31.9777L30.5334 31.7487L30.7689 31.6506L30.8698 31.8796L30.6343 31.9777Z" fill="#FF4654"/>
<path d="M21.8669 39.6222L21.6352 39.8148H21.4146L21.3399 39.6367L21.3773 39.4222L21.4857 39.2805L21.6688 39.6003H21.8407C21.609 39.3786 21.3922 39.1023 21.1456 38.8224L21.0148 39.2078L20.6149 39.066L20.6522 38.8879L20.7606 38.7461L20.9438 38.6734H21.0148C20.9064 38.5571 20.7905 38.4408 20.6635 38.3353C20.5551 38.2445 20.4355 38.1645 20.3084 38.0845L20.2112 38.2117L20.0281 38.2844L19.845 38.2117L19.9534 38.07L20.1365 37.9973L20.2075 38.0227C19.9945 37.9028 19.7628 37.7864 19.5385 37.6592L19.5161 37.6774L19.2956 37.6047L19.3554 37.5465C19.2209 37.4629 19.09 37.3684 18.9705 37.263C18.8247 37.1285 18.6827 36.9867 18.5407 36.8377L18.4921 37.0013L18.3463 36.8595L18.3987 36.685C18.1408 36.4087 17.8829 36.1216 17.5989 35.8562C17.128 35.4164 16.6122 35.002 16.1338 34.544C15.6629 34.0932 15.4387 33.3953 14.9753 32.9372C14.5044 32.472 14.0073 32.043 13.5588 31.585C13.0879 31.1052 12.3629 30.8798 11.9294 30.4254C11.451 29.9274 11.223 29.2513 10.8119 28.8005C10.3223 28.2625 9.70943 27.9063 9.34691 27.4737C8.73773 26.7358 8.23694 26.1433 8.1435 25.8452C8.19583 26.0161 8.24815 26.2342 8.26683 26.4814L8.31168 26.4886L8.45744 26.6667L8.38269 26.8449L8.2631 26.7976C8.24067 27.092 8.15472 27.4156 7.94543 27.75C7.63149 28.2553 7.02231 28.6915 6.5402 29.2513C6.11415 29.7457 5.57972 30.1855 5.08639 30.6653C4.59307 31.1452 4.21934 31.7558 3.71107 32.1702C3.13552 32.6355 2.41796 32.8318 1.89848 33.1372C1.10243 33.6061 0.440933 34.1804 -6.86646e-05 34.0532C0.30639 34.1441 0.967892 34.3004 1.72656 34.8966C2.17504 35.2455 2.76179 35.5872 3.31865 36.0634C3.78208 36.4633 4.26419 36.9177 4.7762 37.3829C5.24336 37.8046 5.51245 38.4735 6.00577 38.9315C6.47667 39.3713 6.94383 39.8293 7.4222 40.2874C7.8931 40.7381 8.56208 41.0035 9.02551 41.4615C9.49641 41.9268 10.0533 42.3048 10.5017 42.7629C10.9726 43.2427 11.3651 43.777 11.7986 44.2314C12.277 44.7294 12.5236 45.3874 12.9347 45.8381C13.4243 46.3761 14.1568 46.6342 14.5193 47.0704C15.1285 47.8083 15.5658 48.4481 15.6592 48.7498C15.5284 48.3245 15.4275 47.6484 15.9096 46.8741C16.2235 46.3689 16.9075 46.0017 17.3858 45.4419C17.5316 45.2711 17.6587 45.0784 17.782 44.8785L17.6512 44.7767L17.7969 44.6349L17.9016 44.6858C18.0959 44.3659 18.2977 44.046 18.5668 43.7843C18.578 43.7734 18.5893 43.7589 18.6005 43.748V43.7116L18.6229 43.7262C19.0938 43.2572 19.5124 42.7192 20.002 42.323C20.2187 42.1485 20.443 41.9922 20.6709 41.8468L20.6074 41.7269L20.8279 41.6905L20.8989 41.7014C21.1941 41.5197 21.4819 41.3524 21.7435 41.1998C21.7473 41.1998 21.7547 41.1961 21.7585 41.1925L21.7809 41.0871L21.8893 40.9817L21.9304 41.1016C22.6592 40.709 23.358 40.56 23.7617 40.6763C23.4552 40.5854 22.7862 40.3528 22.0276 39.7566C21.9715 39.713 21.9192 39.6658 21.8669 39.6149V39.6222ZM6.52152 29.6911L6.66727 29.9056L6.41314 29.8329L6.52152 29.6911ZM6.52152 31.0397H6.66727V31.2869H6.41314L6.52152 31.0397ZM6.74202 34.1659H6.59626V34.0241H6.74202V34.1659ZM6.59626 32.5338L6.52152 32.2866H6.74202L6.81676 32.501L6.59626 32.5374V32.5338ZM7.50816 28.5933L7.65392 28.7351L7.61654 28.9132L7.47079 28.7715L7.50816 28.5933ZM7.28766 28.9823H7.43342V29.1241H7.28766V28.9823ZM7.43342 30.0837L7.68755 30.1201L7.61281 30.3345V30.6544L7.35867 30.6908V30.4436L7.21292 30.1237L7.43342 30.0873V30.0837ZM7.68755 31.7522L7.61281 31.9667L7.42968 31.8249L7.50443 31.5777L7.68755 31.7558V31.7522ZM7.35867 33.2789L7.46705 33.1008L7.68755 33.0281L7.57917 33.2062L7.35867 33.2789ZM7.75483 37.7355L7.65766 37.532L7.81836 37.3357L7.86321 37.5393L7.75483 37.7355ZM8.05381 30.8289H8.23694L8.16219 31.0434H7.97906L8.05381 30.8289ZM8.38269 32.5701L8.30795 32.7482L8.16219 32.6428L8.23694 32.501L8.38269 32.5737V32.5701ZM8.45744 34.0278L8.38269 34.1695H8.05381L7.97906 34.0641V33.8169H8.4537V34.0314L8.45744 34.0278ZM8.45744 28.2407H8.31168V28.0626H8.45744V28.2407ZM9.00682 28.8078L8.78632 28.7024L8.96945 28.597L9.18995 28.7024L9.00682 28.8078ZM9.18995 30.2291L9.04419 30.6181L8.86106 30.6908L8.78632 30.4763V30.2291L8.86106 30.051L9.18995 30.2291ZM8.86106 27.3538L9.08157 27.3901L8.93581 27.5319L8.71531 27.4592L8.86106 27.3538ZM8.78632 33.0717L8.96945 32.9663L9.18995 33.039L9.1152 33.3226L8.93207 33.3953L8.71157 33.2898L8.78632 33.0754V33.0717ZM8.75268 39.6585L8.70784 39.5058L8.8648 39.4622L8.90965 39.6149L8.75268 39.6585ZM8.9545 36.6487L8.83117 36.5178L9.09278 36.4269L9.19368 36.5323L8.95823 36.6523L8.9545 36.6487ZM10.2476 34.5621L10.356 34.4567L10.5765 34.4204L10.3934 34.7402L10.2102 34.8129L10.2476 34.5658V34.5621ZM10.285 31.6504L10.3597 31.545L10.5802 31.5087V31.7558L10.2887 31.6504H10.285ZM10.4307 33.4971V33.3553H10.5765V33.4971H10.4307ZM10.0607 38.3644L10.2439 38.2953L10.2364 38.4953L10.0533 38.5643L10.0607 38.3644ZM10.199 39.6003L9.96731 39.5676L9.87014 39.3641L10.0757 39.3713L10.199 39.6003ZM9.55247 28.0626L9.73559 28.099V28.2771L9.55247 28.3134V28.0662V28.0626ZM9.95236 31.1161L9.87761 31.3305L9.62347 31.3669L9.69822 31.1524L9.95236 31.1161ZM9.40297 32.4283L9.5861 32.3556L9.95236 32.5701L9.84398 32.7119H9.62347L9.44035 32.6065L9.40297 32.4283ZM9.84024 33.8497L9.73186 34.0968L9.5861 33.9551L9.73186 33.7079L9.84024 33.8497ZM9.61974 35.4818L9.54499 35.4091V35.231L9.61974 35.1583H9.80286L9.87761 35.231V35.4091L9.80286 35.4818H9.61974ZM10.1355 40.5745L9.9262 40.6691L9.82903 40.5164L9.85892 40.3419L9.99347 40.171L10.1205 40.251L10.2738 40.3564L10.1355 40.5782V40.5745ZM10.569 37.6483L10.3859 37.721L10.2028 37.6156L10.2775 37.3321L10.6438 37.4048L10.569 37.6519V37.6483ZM10.6438 36.4051H10.4233L10.498 36.1579H10.6438V36.4051ZM10.569 33.1735H10.3485L10.4233 33.0318H10.6438L10.569 33.1735ZM10.4943 30.2618L10.2738 30.2255L10.3821 30.0837L10.6363 30.0474L10.4905 30.2618H10.4943ZM10.64 28.8769L10.4195 29.2331L10.2738 29.055L10.4195 28.5933L10.64 28.6987V28.8769ZM14.1082 35.2346H14.254V35.4818H14.0335L14.1082 35.2346ZM13.7083 34.5585L13.671 34.8057L13.4878 34.842L13.4131 34.6276L13.7046 34.5549L13.7083 34.5585ZM13.2337 37.4702V37.223L13.4542 37.3284L13.529 37.4702L13.4542 37.612H13.1627L13.2374 37.4702H13.2337ZM12.0639 31.894L12.3181 31.9667L12.1349 32.1084L11.9144 32.0357L12.0602 31.894H12.0639ZM11.7724 32.9591L12.0266 32.9954L12.1723 33.1008L12.2097 33.348L11.7724 33.4207L11.8098 33.2062L11.7724 32.9591ZM11.9668 40.6581L12.0116 40.8108L11.9032 40.9599L11.8322 40.7817L11.8135 40.6036L11.9668 40.6581ZM11.7463 39.5458L11.8546 39.4477L11.8995 39.6985L11.75 39.5422L11.7463 39.5458ZM11.7724 34.4167H11.9929L11.8472 34.8784L11.7014 34.773L11.664 34.5948L11.7724 34.4167ZM11.0436 31.0434H11.1894V31.2215H11.0436V31.0434ZM10.8231 35.34L11.1894 35.4818L11.081 35.6236L10.8605 35.5872L10.8231 35.34ZM11.0511 39.4477L10.954 39.295L11.1595 39.3023L11.2567 39.4549L11.0511 39.4477ZM11.0436 34.1659L11.152 33.9878L11.2978 33.8097L11.4062 33.8824L11.4435 34.0968L11.0436 34.1695V34.1659ZM11.7014 43.9624L11.6005 43.857L11.836 43.7371L11.9369 43.8425L11.7014 43.9624ZM12.0415 43.8461L12.049 43.6462L12.2508 43.7516L12.0415 43.8461ZM12.0751 42.8428V42.6938L12.2284 42.8501H12.0751V42.8428ZM12.1125 41.7378L11.9107 41.6323L11.9705 41.4324L12.2732 41.6433L12.1163 41.7378H12.1125ZM12.3218 33.9841L12.3965 33.806L12.6881 34.0205L12.5797 34.1623L12.3965 34.1259L12.3218 33.9841ZM12.8712 35.2273L12.7628 35.3691L12.617 35.2273H12.8712ZM12.6881 36.7541L12.6133 36.8595L12.5386 36.6123L12.6843 36.7541H12.6881ZM12.6881 37.9246L12.8712 37.9973L12.7628 38.139L12.617 38.0663L12.6918 37.9246H12.6881ZM12.7964 42.9628L12.7516 42.8101L12.9086 42.7665L12.9534 42.9192L12.7964 42.9628ZM13.0394 41.8141L13.2262 41.6433L13.2972 41.8723L13.0618 41.9922L13.0431 41.8141H13.0394ZM13.1926 42.6974L13.2935 42.8028L13.1851 42.901L13.0842 42.7956L13.1926 42.6974ZM13.2711 44.7767H13.0879L13.1627 44.6349H13.3458L13.2711 44.7767ZM13.5252 39.1641L13.3421 39.2005L13.3795 39.0587H13.6336L13.5252 39.1641ZM13.7793 36.3215L13.5588 36.2852L13.4841 36.1434V35.9289L13.6672 35.9653L13.7756 36.107V36.3215H13.7793ZM14.1082 43.8025L13.9999 43.9515L13.8167 44.0206L13.798 43.8425L14.1157 43.6498V43.7989L14.1082 43.8025ZM14.1867 42.9519L14.0634 42.821L14.1718 42.7229L14.2951 42.8537L14.1867 42.9519ZM14.325 36.9249L13.9587 36.8522L14.0297 36.6378L14.1755 36.5651L14.3213 36.6378V36.9213L14.325 36.9249ZM16.2235 38.6661L16.5524 39.0551L16.2235 39.1278L16.1488 38.9133L16.2235 38.6661ZM15.3453 35.2564L15.4537 35.151L15.8535 35.4345L15.8162 35.6127L15.2668 35.3982L15.3415 35.2564H15.3453ZM14.9454 34.7221L15.0538 34.544L15.1995 34.6857L15.0911 34.8638L14.908 34.9365L14.9454 34.7221ZM14.908 35.8598L15.1285 35.9325L14.9828 36.3215L14.7996 36.1434L14.7249 35.9289L14.908 35.8562V35.8598ZM14.7996 37.4593L14.908 37.6738H14.7249L14.7996 37.4593ZM14.7249 40.2656L14.8706 40.1238L15.0538 40.1965L14.8706 40.3383L14.7249 40.2656ZM14.8819 46.8923L14.9641 46.7687L15.1659 46.8741L14.8819 46.8887V46.8923ZM15.1846 44.7658L15.2145 44.5913L15.3378 44.8203L15.1846 44.7658ZM15.5284 38.1318V37.9173L15.6742 37.8446L15.8947 37.9864L15.7863 38.1281H15.5321L15.5284 38.1318ZM16.0367 43.9879L15.861 43.8061L16.1189 43.8134L16.2422 43.9915L16.0367 43.9842V43.9879ZM16.444 44.8785L16.2983 44.8058L16.2235 44.6276L16.5524 44.7694L16.6272 44.9475L16.444 44.8748V44.8785ZM16.2235 40.1892L16.3319 40.0475L16.5524 40.0838L16.6272 40.2619L16.2273 40.1892H16.2235ZM17.2102 41.2907L17.0271 41.327L16.9523 41.1125L17.0271 40.8981L17.3186 41.1816L17.2102 41.287V41.2907ZM17.1018 39.9057L16.9561 39.7639L16.9187 39.5167L17.3933 39.7312L17.1018 39.9093V39.9057ZM17.1766 36.7468L17.1018 36.5323L17.3223 36.5687L17.3971 36.7468H17.1766ZM17.5764 37.4556L17.6512 37.2085L17.7259 37.4556H17.5802H17.5764ZM17.9427 40.5091L17.7222 40.3673L17.6475 40.1202L17.868 40.1565L17.9427 40.2983V40.5127V40.5091ZM18.4921 42.5702H18.3463V42.4284H18.4921V42.5702ZM18.4921 41.2579L18.6005 41.1162L18.7836 41.1525L18.821 41.3306L18.4921 41.2579ZM18.6378 39.8003L18.4173 39.7276L18.5257 39.5858L18.7088 39.4804H18.8546L18.892 39.7276L18.6378 39.8003ZM19.6245 40.6509L19.404 40.5782L19.4787 40.4364L19.6245 40.5091V40.6509ZM20.0244 39.444L20.2449 39.5167L20.1365 39.6585H19.916L20.0244 39.444ZM20.0244 41.0762L19.916 40.8981L20.2822 40.9344L20.3196 41.1125L20.0281 41.0762H20.0244ZM20.9363 40.2946L20.6074 40.4364L20.5326 40.1892L20.7531 40.1165H21.0073L20.9325 40.2946H20.9363ZM21.5567 41.1125H21.4109V40.8981L21.6314 40.9708L21.5567 41.1125ZM22.2854 40.5091L22.5059 40.6509H22.2854V40.5091Z" fill="#FF4654"/>
</svg>
