<svg width="169" height="50" viewBox="0 0 169 50" fill="none" xmlns="http://www.w3.org/2000/svg">
<path d="M36.9399 16.1406L46.9945 13.2966L47.6971 22.8146C46.3216 20.2085 43.5068 18.5466 41.0287 18.5466C41.1969 20.7486 42.0342 22.4407 43.2079 24.2008C44.516 26.1649 45.7909 27.2149 47.899 27.9929L46.0224 34.327L37.4407 36.8689L35.1273 26.9807C36.8354 29.6549 39.1154 31.1468 42.4008 31.1468C41.8289 29.1487 40.8906 27.6908 39.6534 26.0327C38.2779 24.1706 37.0706 23.1886 34.9962 22.2745L36.9399 16.1406Z" fill="white"/>
<path d="M53.0765 31.8908C53.0765 31.8908 59.6438 30.9768 61.8229 28.2007C61.1202 31.3847 59.1766 35.9549 59.1766 35.9549H49.6564V15.6345L56.6273 13.2625C56.6273 13.2625 56.0256 22.3387 53.0765 31.8908Z" fill="white"/>
<path d="M77.1732 35.6149L69.9671 36.291C71.208 33.3789 71.7761 30.3648 71.7761 27.7209C67.3507 29.379 63.5981 32.903 63.5981 39.271C63.5981 39.271 61.3854 35.6489 61.3854 31.785C61.3854 20.5748 69.8324 13.1227 69.8324 13.1227C71.2752 14.7128 74.0225 18.8109 75.7306 24.941C77.1734 24.941 78.3094 25.247 78.9486 25.6511C77.9768 25.8891 77.0386 26.127 76.1004 26.3612C76.7694 29.0769 77.1732 32.1929 77.1732 35.6149ZM70.169 19.4945C69.4999 20.3066 67.9224 22.6446 66.5171 26.3688C68.0906 25.7946 69.8362 25.4207 71.5443 25.1828C71.2416 22.1687 70.4007 19.9667 70.169 19.4945Z" fill="white"/>
<path d="M80.2495 16.1406L90.3037 13.2966L91.0067 22.8146C89.6312 20.2085 86.8164 18.5466 84.3383 18.5466C84.5065 20.7486 85.3438 22.4407 86.5174 24.2008C87.8256 26.1649 89.1001 27.2149 91.2082 27.9929L89.332 34.327L80.7503 36.8689L78.4365 26.9807C80.1446 29.6549 82.4246 31.1468 85.71 31.1468C85.1419 29.1487 84.2001 27.6908 82.963 26.0327C81.5875 24.1706 80.3802 23.1886 78.3058 22.2745L80.2495 16.1406Z" fill="white"/>
<path d="M98.6574 13.1946V22.2708L102.208 23.1508V14.6147L107.706 13.2588V20.8468C107.706 26.909 106.735 34.2251 102.444 38.7953V25.587C98.99 25.587 96.9791 27.891 96.9791 30.4971C96.9791 32.5291 97.4502 34.0211 98.6537 35.9511H93.0245V16.5108L98.6574 13.1946Z" fill="white"/>
<path d="M123.431 30.4329L117.633 37.0049L108.921 32.0608C110.196 29.7228 110.595 28.0308 110.595 25.1867C110.595 22.7807 110.061 21.2585 108.988 19.2605L114.419 13.4023L123.67 17.2625L119.446 25.7645C119.446 23.3586 118.609 20.4805 116.228 18.5844C115.223 20.4465 114.954 22.6145 114.954 24.1064C114.954 28.5784 116.594 32.3026 118.673 32.3026C121.054 32.295 123.431 30.4329 123.431 30.4329Z" fill="white"/>
<path d="M123.512 26.6407C123.512 21.3227 124.921 16.8885 128.775 13.2625L137.79 18.2067C137.79 27.3508 135.144 32.6689 129.411 37.1711L125.658 34.7311C124.148 31.9248 123.512 29.5188 123.512 26.6407ZM127.467 26.7767C127.467 30.9768 129.175 33.4469 129.175 33.4469C129.175 33.4469 132.393 31.3469 132.393 25.0808C132.393 21.0507 129.747 18.7468 129.747 18.7468C129.747 18.7468 127.467 21.6286 127.467 26.7767Z" fill="white"/>
<path d="M139.177 34.395V16.0046L145.345 13.2625L152.618 17.9007C152.618 22.7768 151.344 24.2688 149.097 25.8929C151.31 28.4311 152.046 31.887 152.046 37.7112L143.266 26.263L147.793 21.5909L145.146 17.6967C143.438 21.2547 142.867 23.4869 142.867 27.585C142.867 31.3771 143.371 33.4432 144.81 36.7972L139.177 34.395Z" fill="white"/>
<path d="M158.629 30.8408C160.539 33.2468 165.23 30.7388 168.751 26.9467L163.252 37.3448C163.252 37.3448 158.225 34.1608 152.159 33.4847L157.018 23.9326L152.761 17.6326L164.056 12.4165L167.741 23.2868C164.961 19.8988 162.344 17.7308 158.827 20.4087L164.893 25.8967C159.332 25.8967 158.629 30.8408 158.629 30.8408Z" fill="white"/>
<path d="M10.2356 9.18933L10.4038 9.41834L10.4225 9.54193C10.5608 9.65098 10.7065 9.7673 10.8635 9.89453C11.3381 10.2726 12.0819 10.5016 12.6724 11.0141C12.8443 11.1632 12.9863 11.3522 13.1208 11.5521L13.1395 11.5303L13.1507 11.5957C13.3974 11.9665 13.6291 12.3773 13.9729 12.6899C13.9729 12.6899 13.9767 12.6935 13.9804 12.6972L14.0925 12.5881L14.171 12.7662L14.1299 12.8208C14.6195 13.1952 15.2698 13.4315 15.7444 13.8749C16.2452 14.3439 16.5928 14.9909 17.1011 15.478C17.6019 15.9615 17.9868 16.5613 18.4839 17.0484C18.9884 17.5427 19.5527 17.968 20.0348 18.4551C20.5394 18.964 21.0103 19.4802 21.4737 19.9637C21.8175 20.3236 22.281 20.5562 22.6808 20.8179L22.9387 20.8652L22.9163 20.9815C23.0172 21.0578 23.1106 21.1378 23.1929 21.2251C23.4283 21.4795 23.5965 21.7703 23.746 22.0575L23.9142 21.8903L24.1234 21.9884L24.0225 22.192L23.8581 22.2647C24.0001 22.5446 24.1384 22.8063 24.3103 23.0135C24.9681 23.7987 25.6071 24.2822 25.7118 24.5948C25.5623 24.1549 25.8164 23.5951 26.2836 22.8172C26.5901 22.301 26.7097 21.5377 27.188 20.9706C27.6103 20.469 28.2606 20.1055 28.7577 19.622C29.2548 19.1385 29.8639 18.7896 30.3797 18.3788C30.9627 17.9135 31.3775 17.2955 31.9082 16.9975C31.9643 16.9648 32.0241 16.9357 32.0801 16.9066L32.1026 16.7394L32.4651 16.4813L32.3604 16.7721C32.9883 16.4958 33.5564 16.4013 33.9226 16.5176C33.6012 16.4159 32.8874 16.1396 32.0839 15.4998C32.054 15.478 32.0204 15.4526 31.9905 15.4271H31.9755V15.4162C31.7587 15.249 31.527 15.0709 31.2766 14.8819L31.2206 15.0454L31.1159 14.8928V14.7546C30.8879 14.5801 30.6562 14.3984 30.4245 14.1948C30.346 14.1258 30.2713 14.0422 30.1966 13.9658C29.8079 13.5623 29.4678 13.0607 29.0081 12.6463C28.511 12.1955 27.8645 11.8466 27.3413 11.3558C26.8405 10.8869 26.4331 10.298 25.9248 9.80729C25.424 9.32382 25.0839 8.68042 24.5869 8.18968C24.0823 7.69531 23.5479 7.24093 23.0658 6.75383C22.621 6.30671 22.0791 5.96865 21.6381 5.56879L21.6045 5.63786L21.4214 5.71419L21.2906 5.53971L21.3653 5.36159L21.4027 5.34705C20.9243 4.8236 20.6515 4.16565 20.2254 3.704C19.6985 3.12965 19.0968 2.72253 18.7081 2.26087C18.0503 1.4757 17.4748 0.941339 17.3664 0.625088C17.5159 1.06493 17.2655 1.62473 16.8021 2.399C16.4956 2.91519 16.249 3.57677 15.7706 4.14384C15.3894 4.59823 14.8363 4.93629 14.3654 5.35432L14.5784 5.56516L14.4102 5.79417L14.2084 5.72873L14.1299 5.57606C13.6814 6.04862 13.3638 6.65931 12.8779 7.04827C12.8742 7.0519 12.8667 7.05554 12.8592 7.05917V7.16822H12.706C12.1641 7.55354 11.5624 7.79709 11.084 8.06609C10.2842 8.51684 9.62646 8.82945 9.17425 8.68769C9.3798 8.75312 9.67878 8.96395 10.0749 9.27293L10.2356 9.1966V9.18933ZM31.2692 17.0484L31.086 17.0738V16.6667L31.2355 16.4631L31.3701 16.6885V16.8921L31.2692 17.0447V17.0484ZM31.0225 15.8088L31.2056 15.7834L31.3888 15.8561L31.1047 16.0887L30.9477 15.9906L31.0225 15.8124V15.8088ZM28.1672 16.9538L27.9841 16.7285L28.1934 16.6739L28.3279 17.052L28.1709 16.9538H28.1672ZM30.3946 15.7652L30.4245 15.9433L30.2676 16.0451L30.1106 15.9469L30.3946 15.7652ZM29.2921 14.9655L29.1352 15.0164L29.0828 14.8637L29.2398 14.8128L29.2921 14.9655ZM29.1202 13.3951L29.2249 13.4969L29.1202 13.5987L29.0156 13.4969L29.1202 13.3951ZM29.1426 15.4744L29.3258 15.4962L29.408 15.8742L29.1501 16.1323L29.0716 15.9542L29.094 15.7761L28.9371 15.5762L29.1464 15.4707L29.1426 15.4744ZM28.952 14.6383L28.9296 14.8164L28.7465 14.6419H28.9558L28.952 14.6383ZM28.2644 15.9906H28.0551L27.8458 15.8415L27.7374 15.638H27.9467L28.3653 15.7834L28.2644 15.9869V15.9906ZM28.227 12.5409L28.3316 12.6426L28.227 12.7444L28.1223 12.6426L28.227 12.5409ZM28.3578 14.9218L28.1747 14.9982L27.9915 14.9764L27.7524 14.6492L28.1149 14.4929L28.3541 14.9218H28.3578ZM27.8383 12.7226L27.9953 12.8717L27.786 12.9226L27.6552 12.7481L27.8383 12.719V12.7226ZM26.8629 21.2796L26.7321 21.156L26.8629 21.0288L26.9937 21.1524L26.8629 21.2796ZM26.8928 19.1494L26.7097 18.975L27.0198 18.8186V18.9713L26.8928 19.1494ZM26.8816 18.1353L26.6984 17.9608L26.6685 17.7318L26.8255 17.63L27.1394 17.8808L26.8816 18.1389V18.1353ZM27.2067 17.0411L27.0236 17.0665L26.8143 16.9175L26.9937 16.7394L27.1507 16.6885L27.3076 16.8375L27.2067 17.0411ZM27.0909 16.1287L26.9339 16.0305L26.747 15.6525H26.9563L27.3001 15.976L27.0946 16.1287H27.0909ZM27.0909 11.563L27.1955 11.6648L27.0909 11.7666L26.9862 11.6648L27.0909 11.563ZM26.7209 13.5696L26.9003 13.4424H27.1095L27.2927 13.566L26.8778 13.824L26.6424 13.7513L26.7171 13.5732L26.7209 13.5696ZM24.8634 13.0062L24.7326 12.8789L24.8373 12.7771L24.9681 12.9044L24.8634 13.0062ZM24.8709 13.6641L24.6878 13.6896L24.6355 13.5369L24.7924 13.486L24.8709 13.6641ZM24.5757 12.7299L24.5458 12.5518L24.699 12.3991L24.7513 12.5518L24.5719 12.7299H24.5757ZM24.5719 14.7328L24.8298 14.4747L24.9905 14.7764L24.7065 15.1109L24.5757 14.9364V14.7328H24.5719ZM24.7887 17.7972L24.9232 18.0226L24.8186 18.1243L24.684 17.899L24.7887 17.7972ZM24.9942 22.3083L24.8373 22.3592L24.7588 22.1811L24.8074 21.774H25.0167L25.2259 21.9739L24.9942 22.3047V22.3083ZM24.6168 21.0433L24.927 20.7343L25.1661 21.1633L25.0615 21.2651L24.8261 21.1923L24.6168 21.0433ZM25.652 18.0662V17.7099L26.0407 17.6809L26.0183 17.859L25.8127 18.2152L25.6557 18.0662H25.652ZM25.9099 15.5035L26.0668 15.6525L26.0444 15.8815L25.7865 16.1396L25.6557 15.9651L25.9099 15.5071V15.5035ZM25.7155 14.5656L25.8463 14.6419L25.7716 14.8201L25.7155 14.5656ZM25.9547 14.8928L26.0594 14.791L26.164 14.8928L26.0594 14.9945L25.9547 14.8928ZM25.8688 21.3341L25.738 21.1596L25.9211 21.1342L26.078 21.2832L25.8688 21.3378V21.3341ZM26.1154 20.1127L25.936 20.2908L25.7791 20.24L25.9061 20.0109L26.1677 19.9564L26.1154 20.1091V20.1127ZM25.9173 13.9004L25.7081 13.8022L25.6557 13.6496L25.8389 13.5732L26.179 13.7986L25.9211 13.904L25.9173 13.9004ZM26.022 11.4394L26.1528 11.6139L25.9734 11.7411L25.7641 11.6939L25.581 11.5194L25.7865 11.3667L26.022 11.4394ZM25.7267 10.7088L25.6744 10.8615L25.5698 10.7597L25.5436 10.6325L25.7267 10.7052V10.7088ZM25.1774 20.1745L24.9942 20.0509L24.6018 19.9782L24.7027 19.7747L24.8858 19.7492L25.1213 19.8219L25.2521 19.9492L25.1774 20.1782V20.1745ZM25.0092 19.2112L24.7999 19.313L24.8971 18.8041L25.0241 18.6769L25.1549 18.8514L25.0017 19.2076L25.0092 19.2112ZM24.9344 17.0302L24.7513 16.8557V16.6521L24.9307 16.6231L25.0877 16.823L25.1437 17.0266H24.9344V17.0302ZM24.7326 10.3635L24.998 10.7669L24.8148 10.8433L24.6056 10.6942L24.5009 10.4907L24.7326 10.3598V10.3635ZM24.9008 11.5267L25.1101 11.6248L25.0316 11.7521L24.6653 11.8066L24.4822 11.683L24.8971 11.5267H24.9008ZM23.9216 14.9109L23.7684 15.0636L23.5591 14.9146L23.4769 14.6856L23.6301 14.5329L23.944 14.7328L23.9216 14.9109ZM24.0337 15.7725L23.9852 15.976L23.7796 16.1796L23.675 15.976L23.6974 15.747L23.8245 15.6198L24.0337 15.7688V15.7725ZM23.5741 16.6885L23.7833 16.5867L23.9142 16.7612V16.9648L23.7871 17.1429L23.5778 17.0447L23.4993 16.8666L23.5741 16.6885ZM23.6264 18.9459L23.9627 18.7132L24.0674 18.9168V19.0695L23.9403 19.1967H23.7833L23.5741 19.0985L23.6226 18.9459H23.6264ZM23.6488 21.1269L23.6226 20.9488L23.7759 20.7961L23.959 20.9197L24.1421 20.9415L24.2206 21.1196L23.6488 21.1269ZM23.9777 20.2363L23.7684 20.2908L23.5853 20.2181L23.66 20.04L24.0225 19.8328L24.2057 19.9055L23.9739 20.2363H23.9777ZM24.03 17.9789L23.8506 18.1571L23.6675 18.2334V18.0807L23.8469 17.9535L23.7422 17.7499L23.9254 17.6736L24.1085 17.7972L24.0337 17.9753L24.03 17.9789ZM23.8843 14.024L23.7011 14.0531L23.4918 13.8531V13.6496L23.6451 13.446L24.0113 13.6968L24.0898 13.8749L23.8843 14.0276V14.024ZM23.746 8.47322L23.9814 8.59681L23.746 8.62589L23.5367 8.47685H23.746V8.47322ZM23.5853 10.527L23.817 10.3962L24.0524 10.4689L23.9515 10.6724L23.7198 10.8033L23.4844 10.7306L23.5853 10.527ZM23.9627 11.792L23.888 11.9702L23.6787 11.872L23.5703 11.4176H23.7796L23.9665 11.7957L23.9627 11.792ZM23.6301 12.4791L23.9702 12.45L23.9964 12.6281L23.8431 12.9843L23.6862 12.9335L23.447 12.6063L23.6264 12.4791H23.6301ZM20.4534 10.4071L20.8458 10.6833L20.6403 10.9887L20.4572 11.065L20.3525 10.9124L20.3226 10.5816L20.4497 10.4034L20.4534 10.4071ZM20.3413 7.44086L20.6515 7.23366L20.7076 7.539L20.3712 7.61897L20.345 7.44086H20.3413ZM20.5655 16.0342L20.4086 16.0851L20.3002 15.8851L20.3525 15.7325L20.5095 15.6816L20.7449 15.8561L20.5655 16.0342ZM20.2665 14.9982L20.4235 14.8964L20.5543 15.02L20.4534 15.1727L20.2703 14.9982H20.2665ZM20.4908 14.0567L20.3338 13.9549L20.4347 13.8022L20.6179 13.7259L20.8271 13.7732L20.4908 14.0567ZM21.8773 16.932L21.668 16.9866L21.4326 16.9139L21.3541 16.7866L21.5335 16.6594H21.7428L21.8997 16.7576L21.8773 16.9357V16.932ZM21.47 15.5907L21.6755 15.4889L21.8848 15.6888L21.7577 16.1214L21.5223 16.2014L21.4662 15.9978L21.5671 15.7943L21.4625 15.5943L21.47 15.5907ZM22.3856 13.6532L22.621 13.5732L22.8303 13.6714L22.935 13.8713H22.7257L22.4902 13.8495L22.3856 13.6459V13.6532ZM22.6734 18.6951L22.7519 18.8732L22.6248 19.0513L22.4678 19.0004L22.5201 18.8477L22.6734 18.6951ZM22.5351 17.8081L22.7406 17.6554L22.9499 17.7536L22.8229 18.0844L22.6136 18.0371L22.5314 17.8117L22.5351 17.8081ZM22.8976 19.9601L22.7406 20.0618L22.5575 19.9891L22.6323 19.811L22.7892 19.7092L22.9462 19.811L22.8939 19.9637L22.8976 19.9601ZM22.9163 19.2258L22.7855 19.1022L22.8901 19.0004L23.0209 19.124L22.9163 19.2258ZM22.7107 17.2265L22.5276 17.0011L22.4977 16.7721L22.8602 16.6667L23.0172 16.7685L22.7107 17.2265ZM22.7406 15.0963L22.5575 15.0236L22.479 14.8455V14.6928L22.6323 14.5402L22.8154 14.6129L23.0247 14.8128L22.7406 15.0963ZM22.9163 9.6946L22.7631 9.89817L22.6061 9.69824L22.5239 9.46923L22.8901 9.51648L22.92 9.6946H22.9163ZM22.6958 10.9378L22.4865 11.0396L22.4342 10.8869L22.6958 10.9342V10.9378ZM22.4043 10.5598L22.5612 10.458L22.6921 10.4834L22.5127 10.6615L22.408 10.5598H22.4043ZM22.4342 8.48049L22.6136 8.35326L22.6921 8.53138L22.5127 8.91306L22.3781 8.68769L22.4267 8.48412L22.4342 8.48049ZM22.5575 12.5627H22.7668L22.9238 12.6608L23.0023 12.8389L22.793 12.8935L22.5837 12.8462L22.3744 12.6972L22.5538 12.5699L22.5575 12.5627ZM21.7091 6.53572L21.8138 6.6375L21.7091 6.73929L21.6045 6.6375L21.7091 6.53572ZM21.5858 7.27364L21.7689 7.34634L22.0081 7.6735L21.7764 7.90251L21.6942 7.6735L21.4027 7.34634L21.5858 7.27001V7.27364ZM21.8175 11.912L21.612 12.0647L21.4288 11.992L21.6082 11.7121L21.4251 11.5376L21.5821 11.4358L21.9222 11.7121L21.8213 11.9156L21.8175 11.912ZM21.8773 12.7226L21.6718 13.0789L21.5148 12.8789L21.384 12.7044L21.541 12.6027H21.6979L21.8811 12.7263L21.8773 12.7226ZM21.8549 10.6942L21.754 10.8978L21.597 10.8506L21.5185 10.6724L21.6718 10.5198L21.8549 10.6942ZM21.8325 8.71677L21.6494 8.54228H21.8586L21.8362 8.71677H21.8325ZM21.4999 9.35291L21.7353 9.4765L21.8175 9.70551L21.7166 9.90907L21.5335 9.83637L21.3205 9.53466L21.4999 9.35654V9.35291ZM21.313 13.6387L21.4924 13.4605L21.911 13.6605L21.9409 13.8895L21.5783 14.0458L21.3952 14.024L21.2121 13.8495L21.313 13.6459V13.6387ZM20.6777 12.8862L20.5992 12.7081L20.7823 12.6826L20.8608 12.8608L20.6777 12.8898V12.8862ZM20.8421 8.82582L20.6066 8.90579L20.4235 8.7822L20.3936 8.55319L20.5468 8.34962L20.8384 8.67678V8.82945L20.8421 8.82582ZM20.8309 5.45247L20.7524 5.5797L20.3376 5.88868L20.2329 5.68511L20.6702 5.2489L20.8271 5.44883L20.8309 5.45247ZM20.3787 4.51825L20.3263 4.67093L20.2217 4.56914V4.46736L20.3787 4.51825ZM19.5639 10.9669L19.3808 10.8942L19.3247 10.5379L19.5079 10.5089L19.7209 10.8106L19.5677 10.9632L19.5639 10.9669ZM19.6761 11.6248L19.4443 11.8538L19.3958 12.1083L19.265 11.9338L19.3397 11.5012L19.5228 11.4722L19.6798 11.6212L19.6761 11.6248ZM19.5266 9.97814L19.2351 9.70187L19.1827 9.5492L19.3659 9.52012L19.549 9.64371L19.6275 9.82183L19.5266 9.9745V9.97814ZM19.2276 13.7586L19.4593 13.4787L19.5976 14.1112L19.4406 14.1621L19.1267 13.9113L19.2313 13.7586H19.2276ZM19.463 16.1905H19.3061L19.1753 16.0669V15.8633L19.6424 15.9615L19.6686 16.0378L19.463 16.1905ZM19.6611 15.0745L19.4257 14.9509L19.3173 14.7474L19.549 14.6165L19.7583 14.7146L19.6574 15.0709L19.6611 15.0745ZM19.7545 13.9585L19.6499 13.8568L19.7545 13.755L19.8592 13.8568L19.7545 13.9585ZM19.6088 5.28889L19.8442 5.51427L19.7396 5.61605L19.5041 5.39067L19.6088 5.28889ZM19.6761 6.55753L19.5751 6.86288L19.3659 6.76473L19.2313 6.53936L19.4668 6.45938L19.6761 6.55753ZM19.2762 3.36594L19.3546 3.54405L19.1715 3.57313L19.093 3.39502L19.2762 3.36594ZM17.2431 13.0752L17.1123 12.9516L17.0824 12.7735L17.2356 12.6208L17.3963 13.0243L17.2393 13.0752H17.2431ZM18.383 14.9655L18.1998 14.8419L18.383 14.7655L18.5922 14.9146L18.383 14.9691V14.9655ZM18.6259 8.67315L18.4689 8.72404L18.3643 8.62225L18.6259 8.66951V8.67315ZM18.3531 7.56081L18.51 7.50992L18.6408 7.68441L18.5661 7.86252L18.4091 7.76074L18.3531 7.55718V7.56081ZM18.2297 13.0643L18.3344 12.9116L18.5698 12.8317V13.0352L18.2335 13.0643H18.2297ZM18.4241 14.1003L18.4465 13.9222L18.6259 13.7441L18.6558 13.9731L18.4241 14.104V14.1003ZM18.6782 10.9778L18.5474 10.8542L18.652 10.7524L18.7828 10.876L18.6782 10.9778ZM18.5773 6.5648L18.7343 6.71384L18.525 6.81562L18.3157 6.66658L18.5736 6.56117L18.5773 6.5648ZM18.2559 10.4725L18.3867 10.5961L18.282 10.6979L18.1512 10.5743L18.2559 10.4725ZM17.4374 9.49104L17.415 9.66916L17.258 9.52012L17.4412 9.49104H17.4374ZM17.2132 10.5852L17.3701 10.4834L17.3963 10.6615L17.2692 10.8397L17.0861 10.7669L17.2132 10.5888V10.5852ZM17.2991 11.4722L17.4823 11.494L17.6392 11.643L17.4337 11.7957V11.9483L17.3066 12.1774L17.0151 11.9011L16.9628 11.7484L17.2991 11.4649V11.4722ZM16.1555 11.9411L16.021 11.7157L16.1518 11.5885L16.2602 11.8393L16.1555 11.9411ZM16.0098 10.6506L16.1892 10.4725L16.4283 11.0032L16.3536 11.1813L15.9051 10.8578L16.006 10.6543L16.0098 10.6506ZM14.0178 11.9629L13.8832 11.7375L13.9057 11.5594L14.0626 11.4576L14.1449 11.7848L14.0178 11.9629ZM15.3034 12.8353L15.1465 12.8862L14.9633 12.7626L15.1689 12.6099L15.3782 12.7081L15.3034 12.8353ZM14.9259 11.723L15.1352 11.8211L15.0306 11.9229L14.9259 11.7193V11.723ZM15.0941 10.5307L15.2511 10.7306L15.0418 10.8324L14.911 10.7088L14.8811 10.5307H15.0904H15.0941ZM14.5746 10.7379L14.3429 11.0687L14.1336 10.9705H13.872L13.8945 10.796L13.9954 10.6434L14.3878 10.6143L14.5709 10.7379H14.5746ZM14.1635 8.84036L14.3205 8.9894L14.1112 9.09118L13.9019 8.94214L14.1635 8.83672V8.84036ZM14.1187 9.5492V9.57101L14.1897 9.50194L14.4252 9.60009L14.3579 9.79638L14.1224 9.89453L14.0215 9.66552L14.0626 9.62917L13.8608 9.55283H14.1224L14.1187 9.5492ZM12.9115 11.0723L12.777 10.8106L13.0461 10.6143L13.2815 10.7124L12.9115 11.0723ZM12.9115 9.24022L13.0797 9.53466L12.9115 9.69824L12.6761 9.46923L12.9115 9.24022ZM11.6334 9.95996L11.5325 9.79638L11.667 9.60009L11.6334 9.95996ZM11.4988 9.04392L11.7343 9.14207L11.8352 9.30565L11.5661 9.37108L11.2634 9.2075L11.4988 9.04392Z" fill="white"/>
<path d="M32.1778 32.4247L32.0246 32.5156L31.8901 32.2539L31.9274 32.1158C31.7518 31.9086 31.5462 31.6868 31.2884 31.4796C31.0791 31.3088 30.7838 31.207 30.4699 31.0943L30.4437 31.1088L30.4064 31.0725C30.0551 30.9489 29.6888 30.8071 29.3973 30.5527C28.9264 30.1419 28.7321 29.3531 28.1976 28.8696C28.1528 28.8296 28.1042 28.786 28.0556 28.7424L27.8874 28.8115L27.8202 28.5497H27.8351C27.4651 28.2117 27.0839 27.8736 26.6915 27.5138C26.2094 27.0703 25.5254 26.8049 25.0172 26.3287C24.5351 25.878 24.2249 25.2309 23.7241 24.7584C23.2382 24.3003 22.4758 24.1041 21.9825 23.6315C21.4966 23.1662 20.9734 22.7336 20.4838 22.2611C19.998 21.7921 19.6841 21.1524 19.2019 20.6798C18.7161 20.2073 18.4096 19.5638 17.935 19.0913C17.4491 18.6115 16.8063 18.2916 16.3392 17.819C15.8533 17.3319 15.1956 17.0229 14.7321 16.554C14.2463 16.0596 14.2052 15.1763 13.753 14.7074C13.2634 14.2021 12.3814 14.0931 11.9366 13.6278C11.8918 13.5805 11.8507 13.5296 11.8058 13.4787L11.4059 13.8677L11.5405 13.5405L11.3387 13.3442L11.5741 13.2461L11.6489 13.3006C11.2901 12.868 10.9948 12.4209 10.6585 12.0574C10.1427 11.4976 10.0194 10.7233 9.6382 10.2835C9.00659 9.54921 8.25539 9.23659 8.09469 8.92398C8.37499 9.47287 8.6366 10.258 8.31519 11.0505C8.076 11.643 7.63127 12.3082 7.1641 12.9298C6.9436 13.2243 6.61098 13.4387 6.27089 13.6532L6.32321 13.7041L6.18867 13.835L6.11019 13.7586C5.85979 13.9149 5.61313 14.0785 5.41131 14.2748C4.88809 14.7837 4.41719 15.3326 3.84912 15.7361C3.59498 15.9142 3.36327 16.1287 3.13903 16.3359L3.35953 16.4522L3.09045 16.5831L2.98207 16.4777C2.6943 16.7394 2.41026 16.972 2.09633 17.092C1.45725 17.3355 0.717264 17.4519 0.15667 17.361C0.556561 17.4519 1.10968 17.5827 1.63664 18.0117C2.08885 18.3788 2.3542 19.1058 2.92601 19.6075C3.39691 20.0182 3.85659 20.5162 4.39477 20.9997C4.71991 21.2905 5.2095 21.4323 5.65424 21.6395L5.64302 21.5631L5.77757 21.3668L6.01302 21.2687L6.24847 21.3668L5.79252 21.7049C5.95322 21.7885 6.10645 21.883 6.23725 22.003C6.71936 22.4465 6.85017 23.2753 7.35844 23.7514C7.84055 24.2022 8.31519 24.682 8.81599 25.1582C9.30184 25.6162 10.0493 25.8271 10.5426 26.2996C11.0285 26.7649 11.7087 27.0448 12.1945 27.5174C12.3477 27.6664 12.4972 27.8227 12.6505 27.9754L12.7065 27.9209L12.9083 28.1172L12.8336 28.1572C13.0952 28.4262 13.3568 28.6952 13.6222 28.9569C14.108 29.4294 14.5341 29.9602 15.0087 30.4327C15.1133 30.5381 15.203 30.6581 15.2815 30.7853L15.36 30.709L15.4945 30.8398L15.3787 30.9525C15.6141 31.3742 15.7898 31.8468 16.1149 32.1703C16.6008 32.6574 17.3557 32.8719 17.8191 33.3408C17.9649 33.4898 18.1256 33.6243 18.2863 33.7552L18.4545 33.5952L18.7572 33.6934L18.5218 33.9224L18.462 33.8933C18.7834 34.1441 19.1085 34.384 19.3776 34.6603C19.8672 35.1656 20.2484 35.7363 20.6931 36.2016C21.1902 36.725 21.5751 37.2885 21.9974 37.7465C22.5132 38.3063 23.0102 38.7789 23.3877 39.2187C24.0193 39.953 24.4753 40.531 24.636 40.8399C24.3557 40.291 24.0231 39.5386 24.3445 38.7461C24.5836 38.1536 25.4171 37.7647 25.8842 37.1394C26.0636 36.8995 26.1944 36.6051 26.3252 36.307L26.2953 36.2525L26.3514 36.2452C26.5121 35.8817 26.684 35.5182 26.9643 35.2456C27.4875 34.7366 28.2612 34.4858 28.8292 34.0823C29.4683 33.628 30.1746 33.4716 30.7801 33.239C31.5948 32.9264 32.1405 32.7228 32.7048 32.9954C32.5478 32.9191 32.3871 32.7046 32.1741 32.4356L32.1778 32.4247ZM4.47325 15.9578L4.54052 16.1541L4.37234 16.3177L4.17053 16.1214L4.47325 15.9578ZM4.46951 20.4108L4.16679 20.4435V20.1818L4.43588 19.9855L4.7386 20.1491L4.46951 20.4108ZM4.50689 17.9571L4.2378 17.8263L4.50689 17.6954L4.80961 17.7281L4.50689 17.9571ZM8.75246 10.8142L8.8571 10.916L8.75246 11.0178L8.64781 10.916L8.75246 10.8142ZM8.63286 11.803L8.6665 11.8975L8.887 11.8066V12.0683L8.65155 12.1665V11.9883L8.58428 12.0574L8.53195 11.9047L8.6366 11.803H8.63286ZM8.47589 19.3348L8.27408 19.0731L8.50953 18.7787L8.61044 19.0731L8.47589 19.3348ZM8.67771 20.1854L8.81225 20.4472L8.64407 20.6107L8.50953 20.349L8.67771 20.1854ZM7.0333 16.0923L7.57147 16.0269L7.63874 16.3541L7.43693 16.2886L7.20148 16.2559L6.99966 16.4522L6.86512 16.1905L7.0333 16.0923ZM7.26501 18.546L7.5341 18.8077L7.635 19.0368L7.26501 19.1349L7.1641 18.8405L7.26501 18.546ZM6.96229 17.859V17.6627L7.13047 17.4337L7.19774 17.6954L6.96229 17.859ZM5.68413 16.1541L5.88595 16.0233H6.08776L6.2223 16.2196L6.1214 16.4486L5.88595 16.6122H5.68413L5.54959 16.4159L5.68413 16.1541ZM5.74767 20.6071L5.64676 20.3781L5.71403 19.9201L5.94948 19.8219L6.1513 20.4762L5.74767 20.6071ZM5.64676 19.1349L5.74767 18.9059L6.05039 19.2003L5.81494 19.2985L5.64676 19.1349ZM6.05039 18.088L5.7813 17.9571L5.44495 17.4991L5.98312 17.3028L6.35311 17.7936L6.05039 18.088ZM6.2223 15.1109L6.1214 14.9473L5.98685 14.751L6.18867 14.5547L6.42412 14.8491L6.2223 15.1109ZM7.42945 21.8539L7.23885 21.9157L7.17158 22.1593L7.23885 22.2247L6.96976 22.0939L6.80159 21.7994L7.07067 21.734L7.20521 21.7776L7.23137 21.7231L7.50046 21.5922L7.43319 21.8539H7.42945ZM7.53036 20.4472L7.26127 20.12L7.46309 19.9891L7.79944 20.3163L7.53036 20.4472ZM7.76955 17.9281L7.5341 17.9608L7.29865 17.8626L7.46683 17.699L7.83682 17.7318L7.76955 17.9281ZM8.47216 22.8718L8.30398 22.6428L8.6067 22.61L8.80851 22.8718H8.47216ZM8.81973 23.2425L8.68518 23.3734L8.517 23.2098L8.65155 23.079L8.81973 23.2425ZM8.6067 24.2458L8.33762 24.115L8.53943 23.9187L8.87579 24.0495L8.6067 24.2458ZM8.887 21.9339L8.34883 22.0648L8.11338 22.2284L8.04611 21.9012L8.24792 21.7703L8.887 21.7376V21.9339ZM8.5768 17.7318L8.30772 17.6009L8.40862 17.3065L8.71134 17.1429L9.01407 17.5682L8.5768 17.7318ZM8.84589 16.2268L8.74498 16.0633L8.91316 15.9651L9.08134 16.1287L8.84589 16.2268ZM9.08134 15.0164L9.01407 15.2127L8.87952 15.2781L8.64407 14.9836L9.08134 14.6892V15.0164ZM10.1614 11.9411L10.3296 12.2355H10.0605L9.89233 11.9411H10.1614ZM10.1913 14.5911L10.3931 14.8528H10.0568L9.88859 14.6238L10.1913 14.5911ZM9.95586 16.2596L10.0904 16.3904L9.95586 16.5213L9.82132 16.3904L9.95586 16.2596ZM9.75031 20.1236L9.98576 19.9601L10.2212 20.0582L10.2885 20.2545L10.0194 20.3854L9.9297 20.2981V20.3999L9.69425 20.4326L9.88112 20.2509L9.75031 20.1236ZM9.88486 21.3014L10.3894 21.5958L10.2548 21.8576L9.95213 22.0212L9.98576 21.7267L9.68304 21.3014H9.88486ZM9.88486 22.6755L10.3221 22.9699L10.3558 23.1989L10.2548 23.4279L10.2025 23.3988L10.0269 23.5697L9.82506 23.3734L9.97829 23.2789L9.94839 23.2643L9.64567 22.839L9.88112 22.6755H9.88486ZM10.1876 24.4748L9.91849 24.344L9.81758 24.115L10.053 24.0168L10.3221 24.2131L10.4567 24.4748H10.1876ZM10.4268 19.0077L9.82132 19.204L9.65314 18.9095L9.92223 18.7787L10.225 18.8114L10.4604 18.7132L10.4268 19.0077ZM10.3595 17.8299L9.78769 17.7972L10.0904 17.699L10.2922 17.4373L10.5277 17.6663L10.3595 17.8299ZM10.3595 16.5213L10.2586 16.2268L10.3931 16.096L10.5277 16.3577L10.3595 16.5213ZM10.9388 20.8543L10.8379 20.6907L11.1406 20.5926L11.4769 20.2L11.5106 20.2472L11.7685 20.1236L11.8021 20.3527L11.5666 20.7125L11.5517 20.6944L11.5405 20.7234L11.0696 21.0506L10.935 20.8543H10.9388ZM11.7124 21.9339L11.4769 21.9666L11.376 21.7376L11.6115 21.7049L11.7124 21.9339ZM11.3387 24.9765L11.2041 24.8456L11.3387 24.7147L11.4732 24.8456L11.3387 24.9765ZM11.6339 23.1989L11.4321 23.3298L11.2303 23.1335L11.4657 22.7736L11.8357 23.0026L11.6339 23.1989ZM14.0706 19.2512L14.3734 19.3494L14.037 19.5457L14.0706 19.2512ZM12.6916 17.8408L12.927 17.939L12.8597 18.1353L12.6579 18.2661L12.4561 18.1353L12.6916 17.8408ZM12.2506 20.8179V20.6216L12.4187 20.3926L12.6878 20.6544L12.7887 20.8834L12.3515 21.047L12.2506 20.8179ZM12.5159 24.682L12.3814 24.5512L12.5159 24.4203L12.6505 24.5512L12.5159 24.682ZM12.9756 25.947L12.7065 26.0779V25.8162L12.9756 25.6853V25.947ZM12.8747 24.344L12.6392 24.0495L12.8747 24.0168L13.1438 24.4094L12.8747 24.344ZM12.9195 23.4388L12.7514 23.079L13.2895 23.0135L12.9195 23.4388ZM13.525 26.6922L13.3419 26.6195L13.4129 26.5141L13.6334 26.4778L13.525 26.6922ZM13.5923 22.2611L13.9623 22.0321L14.0295 22.3592L13.8277 22.4246L13.5923 22.2611ZM14.3285 27.4738L14.1828 27.4011L14.2276 27.3175L14.1192 27.3865L13.8501 27.1902L14.1192 26.9939L14.2874 26.5032L14.4219 27.0267L14.321 27.2557L14.2949 27.2738L14.4406 27.332L14.3322 27.4738H14.3285ZM15.8272 27.5465H15.6067V27.4047H15.7898L15.8272 27.5465ZM15.3152 26.0888L15.2778 25.8743L15.4983 25.947L15.6067 26.0888H15.3152ZM15.5655 26.9649L15.431 27.2266L15.2292 27.0303L15.3637 26.7031L15.5655 26.9649ZM15.7823 23.4098L15.5469 23.4425L15.715 23.148L15.7823 23.4098ZM15.4833 20.5599L15.5506 20.8216L15.4161 21.0179L15.2142 20.6907L15.4833 20.5599ZM14.9751 24.8492L15.1096 24.7184L15.2441 24.8492L15.1096 24.9801L14.9751 24.8492ZM15.5655 30.0438L15.1956 29.6839L15.4646 29.553L15.7001 29.782L15.5655 30.0438ZM15.8346 28.408L15.6141 28.5279L15.6814 28.5788V28.7933L15.5357 28.7206V28.5716H15.5319L15.2965 28.3462L15.4646 28.0517L15.7001 28.019L15.8683 28.1826L15.8346 28.4116V28.408ZM19.3141 23.577L19.3813 23.2498L19.7513 23.2825L19.5831 23.5115L19.3141 23.577ZM19.4038 26.445L19.6243 26.4814L19.5159 26.6232H19.2954L19.4038 26.445ZM18.7609 28.5061L18.2564 28.408L18.2228 28.179L18.4246 28.1135L18.66 28.2771L18.7609 28.5061ZM18.4059 22.0357L18.3386 22.2974L18.1368 22.4283L18.1032 22.1993L18.305 21.7413L18.4059 22.0357ZM18.2041 20.3999L18.0023 20.4653L17.8677 20.3345L18.2041 20.3999ZM17.9985 23.0172L18.234 23.1153L18.4022 23.3443L18.4358 23.5733L18.1667 23.7042L17.9313 23.6715L17.7967 23.2789L17.9985 23.0172ZM17.1726 27.0121L17.3557 27.0848L17.3931 27.332L17.1726 27.2956L17.0268 27.1539L17.1726 27.0121ZM16.8063 28.4407L17.1091 28.408V28.4843L17.2473 28.5061L17.3221 28.6842L17.1763 28.7569L17.0306 28.6842V28.5134L16.8101 28.4407H16.8063ZM16.6232 18.9931L16.9259 19.1567L16.6905 19.2549L16.455 19.2221L16.3541 18.9931H16.6232ZM16.6867 24.5584L16.4849 24.6239L16.4177 24.4276L16.6195 24.3621L16.6867 24.5584ZM16.1523 26.6959V26.4814L16.2271 26.3396L16.7017 26.4814L16.6269 26.8013L16.1523 26.6959ZM17.1053 32.4684L16.8362 32.3375L16.6681 32.1085L16.9035 32.0103L17.139 32.1085L17.408 32.3702L17.1053 32.4684ZM17.2062 31.2579L16.9708 31.2252L16.7353 30.9962L17.0717 30.669L17.3408 30.9307L17.4417 31.1597L17.2062 31.2579ZM17.722 25.0964V24.9547H17.9051L17.9425 25.0964H17.722ZM18.2863 29.6875L18.5554 29.9493L18.219 30.0147L18.0172 29.753L18.2863 29.6875ZM18.5517 32.6356L18.1817 32.2757L18.518 32.0794L18.7535 32.3738L18.5517 32.6356ZM18.4171 31.5232L18.3498 31.2615L18.4171 30.9998L18.5853 30.8362L18.8544 30.9671L18.4171 31.5232ZM19.1085 21.814L19.344 21.7812L19.5121 22.0757L19.4449 22.3374L19.2431 22.0757L19.1085 21.814ZM19.4374 28.1208L19.6915 28.0845L19.6542 28.2989L19.5084 28.4043L19.3253 28.3316L19.2879 28.1535L19.4337 28.1172L19.4374 28.1208ZM19.4935 32.7046L19.2916 32.5083L19.3253 32.2793L19.5271 32.083L19.7962 32.0176L19.8298 32.2466L19.4935 32.7046ZM19.7476 24.7293L19.5794 24.5657L19.714 24.4348L19.8821 24.5984L19.7476 24.7293ZM20.1662 28.6879L19.983 28.6152V28.4734H20.1662V28.6879ZM21.2948 24.7293L21.0594 24.9583L20.8239 25.0564L20.7903 24.8274L21.0257 24.5984L21.2612 24.5003L21.2948 24.7293ZM21.0781 27.87V28.0118L20.9323 27.9391V27.7973L21.0781 27.87ZM20.8912 23.0244L21.1266 23.5152H20.8576L20.6894 23.2862L20.8912 23.0244ZM20.5847 26.3941L20.4838 26.1651L20.6856 25.9034L20.7529 26.1651L20.5847 26.3941ZM21.1379 35.1547L20.9024 35.2528V34.9911L21.1379 34.893V35.1547ZM21.0743 30.898L20.8725 31.0943V30.8326L21.1416 30.7017L21.0743 30.898ZM20.7716 29.8838L20.9734 29.6875H21.1752L21.3771 29.8838L21.1752 30.0801L20.7716 29.8838ZM21.3397 33.8461L21.2051 33.7152L21.3733 33.5516L21.5079 33.6825L21.3397 33.8461ZM22.5692 27.412L22.3338 27.5101L22.2665 27.183H22.5356L22.5692 27.412ZM22.0348 24.4639L22.2703 24.3658L22.3039 24.6602L22.1694 24.9874L22.0348 24.7256V24.4639ZM22.0647 28.4916L22.2665 28.2953L22.4683 28.4916L22.3674 28.7206L22.1656 28.786L22.0647 28.4916ZM22.5879 35.0602L22.3861 34.9947L22.2852 34.7657L22.5543 34.6349L22.7561 34.7657L22.8234 34.962L22.5879 35.0602ZM22.6888 33.9805L22.5207 34.0133L22.5879 33.7515L22.8234 33.8497L22.6888 33.9805ZM23.9707 32.7374L23.5671 32.3448L23.5335 32.1812L23.7689 32.083L24.038 32.2139L24.1389 32.5083L23.9707 32.7374ZM24.1053 33.8497L23.9035 34.046L23.5335 34.0133V33.7515L23.9707 33.4571L24.1053 33.6534V33.8497ZM23.9184 28.9169L23.7839 28.786L23.9184 28.6552L24.053 28.786L23.9184 28.9169ZM23.7203 25.6417L23.9221 25.838L23.9894 26.0343L23.754 26.067L23.5185 25.838L23.7203 25.6417ZM23.5671 36.4669L23.5335 36.4342V36.1725L23.7353 35.9762L23.9707 36.0744L23.5671 36.4669ZM23.8698 35.3219L23.668 35.1256L23.7017 34.8312H23.8362L24.2062 35.191L23.8698 35.3219ZM24.7294 27.412L24.6285 27.2484L24.7294 27.0194L25.2003 27.412L25.1667 27.7064L24.9649 27.5101L24.7294 27.412ZM25.0994 28.4916L25.3348 28.7206L25.2339 28.9496L24.8639 28.5897L25.0994 28.4916ZM25.3573 30.6726L25.4245 30.8689L25.1891 30.9671L25.1555 30.7381L25.3573 30.6726ZM24.9163 35.3546L24.8826 35.1256L25.1854 34.6349L25.5553 35.1256L24.9163 35.3546ZM25.2526 34.1114H25.1181V33.8497L24.9163 33.5225L25.1181 33.3917L25.5553 33.6861L25.2526 34.1114ZM25.4208 32.5738L25.0172 32.4429L25.0844 32.1812L25.3199 31.9522L25.5217 32.1485L25.5553 32.3775L25.4208 32.5738ZM25.4208 29.7566L25.3535 29.5603L25.5553 29.4949L25.6226 29.6912L25.4208 29.7566ZM28.3135 30.8726L28.1453 31.0361L28.0444 30.7417L28.3135 30.8726ZM25.9702 28.4916L26.2056 28.4589L26.3065 28.6879L26.542 28.9169L26.3065 28.9496L26.0711 28.7206L25.9702 28.4916ZM26.1907 33.7843H26.4598L26.6616 34.046L26.3589 34.0787L26.1907 33.7843ZM26.7289 35.42L26.4934 35.3219L26.5943 35.1583L26.7961 35.0275L26.897 35.2565L26.7289 35.42ZM26.7289 32.7374L26.5607 32.5738L26.9307 32.2139L27.0652 32.4102L26.7289 32.7374ZM27.6034 33.7188L27.5698 33.4898L27.7379 33.2608L27.8725 33.7188H27.6034ZM27.6744 29.9856L27.5735 29.7566L27.8089 29.6584L28.0444 29.7566L28.078 29.9856L27.8762 30.1165L27.6744 29.9856ZM27.9397 32.6683V32.4066L28.2425 32.243L28.4443 32.5701L27.9397 32.6683ZM29.4571 30.7381L29.4907 30.9671L29.2553 30.9344L29.4571 30.7381ZM29.4907 32.2757L28.9526 32.0794L29.2553 31.9813L29.5916 32.0467L29.7598 32.2757H29.4907ZM30.6343 32.6029L30.5334 32.3738L30.7689 32.2757L30.8698 32.5047L30.6343 32.6029Z" fill="white"/>
<path d="M21.8669 40.2474L21.6352 40.44H21.4146L21.3399 40.2619L21.3773 40.0474L21.4857 39.9057L21.6688 40.2255H21.8407C21.609 40.0038 21.3922 39.7275 21.1456 39.4476L21.0148 39.833L20.6149 39.6912L20.6522 39.5131L20.7606 39.3713L20.9438 39.2986H21.0148C20.9064 39.1823 20.7905 39.066 20.6635 38.9605C20.5551 38.8697 20.4355 38.7897 20.3084 38.7097L20.2112 38.837L20.0281 38.9097L19.845 38.837L19.9534 38.6952L20.1365 38.6225L20.2075 38.6479C19.9945 38.528 19.7628 38.4116 19.5385 38.2844L19.5161 38.3026L19.2956 38.2299L19.3554 38.1717C19.2209 38.0881 19.09 37.9936 18.9705 37.8882C18.8247 37.7537 18.6827 37.6119 18.5407 37.4629L18.4921 37.6265L18.3463 37.4847L18.3987 37.3102C18.1408 37.034 17.8829 36.7468 17.5989 36.4814C17.128 36.0416 16.6122 35.6272 16.1338 35.1692C15.6629 34.7184 15.4387 34.0205 14.9753 33.5625C14.5044 33.0972 14.0073 32.6682 13.5588 32.2102C13.0879 31.7304 12.3629 31.505 11.9294 31.0506C11.451 30.5526 11.223 29.8765 10.8119 29.4257C10.3223 28.8877 9.70943 28.5315 9.34691 28.0989C8.73773 27.361 8.23694 26.7685 8.1435 26.4704C8.19583 26.6413 8.24815 26.8594 8.26683 27.1066L8.31168 27.1138L8.45744 27.292L8.38269 27.4701L8.2631 27.4228C8.24067 27.7173 8.15472 28.0408 7.94543 28.3752C7.63149 28.8805 7.02231 29.3167 6.5402 29.8765C6.11415 30.3709 5.57972 30.8107 5.08639 31.2905C4.59307 31.7704 4.21934 32.3811 3.71107 32.7955C3.13552 33.2607 2.41796 33.457 1.89848 33.7624C1.10243 34.2313 0.440933 34.8057 -6.86646e-05 34.6784C0.30639 34.7693 0.967892 34.9256 1.72656 35.5218C2.17504 35.8707 2.76179 36.2124 3.31865 36.6886C3.78208 37.0885 4.26419 37.5429 4.7762 38.0082C5.24336 38.4298 5.51245 39.0987 6.00577 39.5567C6.47667 39.9965 6.94383 40.4546 7.4222 40.9126C7.8931 41.3633 8.56208 41.6287 9.02551 42.0867C9.49641 42.552 10.0533 42.93 10.5017 43.3881C10.9726 43.8679 11.3651 44.4023 11.7986 44.8566C12.277 45.3546 12.5236 46.0126 12.9347 46.4633C13.4243 47.0013 14.1568 47.2594 14.5193 47.6956C15.1285 48.4336 15.5658 49.0733 15.6592 49.375C15.5284 48.9497 15.4275 48.2736 15.9096 47.4993C16.2235 46.9941 16.9075 46.6269 17.3858 46.0671C17.5316 45.8963 17.6587 45.7036 17.782 45.5037L17.6512 45.4019L17.7969 45.2601L17.9016 45.311C18.0959 44.9911 18.2977 44.6712 18.5668 44.4095C18.578 44.3986 18.5893 44.3841 18.6005 44.3732V44.3368L18.6229 44.3514C19.0938 43.8824 19.5124 43.3444 20.002 42.9482C20.2187 42.7737 20.443 42.6174 20.6709 42.472L20.6074 42.3521L20.8279 42.3157L20.8989 42.3266C21.1941 42.1449 21.4819 41.9777 21.7435 41.825C21.7473 41.825 21.7547 41.8214 21.7585 41.8177L21.7809 41.7123L21.8893 41.6069L21.9304 41.7268C22.6592 41.3342 23.358 41.1852 23.7617 41.3015C23.4552 41.2107 22.7862 40.978 22.0276 40.3819C21.9715 40.3382 21.9192 40.291 21.8669 40.2401V40.2474ZM6.52152 30.3163L6.66727 30.5308L6.41314 30.4581L6.52152 30.3163ZM6.52152 31.6649H6.66727V31.9121H6.41314L6.52152 31.6649ZM6.74202 34.7911H6.59626V34.6493H6.74202V34.7911ZM6.59626 33.159L6.52152 32.9118H6.74202L6.81676 33.1262L6.59626 33.1626V33.159ZM7.50816 29.2185L7.65392 29.3603L7.61654 29.5384L7.47079 29.3967L7.50816 29.2185ZM7.28766 29.6075H7.43342V29.7493H7.28766V29.6075ZM7.43342 30.7089L7.68755 30.7453L7.61281 30.9597V31.2796L7.35867 31.316V31.0688L7.21292 30.7489L7.43342 30.7126V30.7089ZM7.68755 32.3774L7.61281 32.5919L7.42968 32.4501L7.50443 32.2029L7.68755 32.3811V32.3774ZM7.35867 33.9042L7.46705 33.726L7.68755 33.6533L7.57917 33.8315L7.35867 33.9042ZM7.75483 38.3608L7.65766 38.1572L7.81836 37.9609L7.86321 38.1645L7.75483 38.3608ZM8.05381 31.4541H8.23694L8.16219 31.6686H7.97906L8.05381 31.4541ZM8.38269 33.1953L8.30795 33.3734L8.16219 33.268L8.23694 33.1262L8.38269 33.199V33.1953ZM8.45744 34.653L8.38269 34.7947H8.05381L7.97906 34.6893V34.4421H8.4537V34.6566L8.45744 34.653ZM8.45744 28.8659H8.31168V28.6878H8.45744V28.8659ZM9.00682 29.433L8.78632 29.3276L8.96945 29.2222L9.18995 29.3276L9.00682 29.433ZM9.18995 30.8543L9.04419 31.2433L8.86106 31.316L8.78632 31.1015V30.8543L8.86106 30.6762L9.18995 30.8543ZM8.86106 27.979L9.08157 28.0153L8.93581 28.1571L8.71531 28.0844L8.86106 27.979ZM8.78632 33.697L8.96945 33.5915L9.18995 33.6642L9.1152 33.9478L8.93207 34.0205L8.71157 33.9151L8.78632 33.7006V33.697ZM8.75268 40.2837L8.70784 40.131L8.8648 40.0874L8.90965 40.2401L8.75268 40.2837ZM8.9545 37.2739L8.83117 37.143L9.09278 37.0521L9.19368 37.1575L8.95823 37.2775L8.9545 37.2739ZM10.2476 35.1873L10.356 35.0819L10.5765 35.0456L10.3934 35.3655L10.2102 35.4382L10.2476 35.191V35.1873ZM10.285 32.2756L10.3597 32.1702L10.5802 32.1339V32.3811L10.2887 32.2756H10.285ZM10.4307 34.1223V33.9805H10.5765V34.1223H10.4307ZM10.0607 38.9896L10.2439 38.9206L10.2364 39.1205L10.0533 39.1896L10.0607 38.9896ZM10.199 40.2255L9.96731 40.1928L9.87014 39.9893L10.0757 39.9965L10.199 40.2255ZM9.55247 28.6878L9.73559 28.7242V28.9023L9.55247 28.9386V28.6915V28.6878ZM9.95236 31.7413L9.87761 31.9558L9.62347 31.9921L9.69822 31.7776L9.95236 31.7413ZM9.40297 33.0535L9.5861 32.9808L9.95236 33.1953L9.84398 33.3371H9.62347L9.44035 33.2317L9.40297 33.0535ZM9.84024 34.4749L9.73186 34.722L9.5861 34.5803L9.73186 34.3331L9.84024 34.4749ZM9.61974 36.107L9.54499 36.0343V35.8562L9.61974 35.7835H9.80286L9.87761 35.8562V36.0343L9.80286 36.107H9.61974ZM10.1355 41.1997L9.9262 41.2943L9.82903 41.1416L9.85892 40.9671L9.99347 40.7963L10.1205 40.8762L10.2738 40.9816L10.1355 41.2034V41.1997ZM10.569 38.2735L10.3859 38.3462L10.2028 38.2408L10.2775 37.9573L10.6438 38.03L10.569 38.2771V38.2735ZM10.6438 37.0303H10.4233L10.498 36.7831H10.6438V37.0303ZM10.569 33.7987H10.3485L10.4233 33.657H10.6438L10.569 33.7987ZM10.4943 30.887L10.2738 30.8507L10.3821 30.7089L10.6363 30.6726L10.4905 30.887H10.4943ZM10.64 29.5021L10.4195 29.8583L10.2738 29.6802L10.4195 29.2185L10.64 29.324V29.5021ZM14.1082 35.8598H14.254V36.107H14.0335L14.1082 35.8598ZM13.7083 35.1837L13.671 35.4309L13.4878 35.4672L13.4131 35.2528L13.7046 35.1801L13.7083 35.1837ZM13.2337 38.0954V37.8482L13.4542 37.9536L13.529 38.0954L13.4542 38.2372H13.1627L13.2374 38.0954H13.2337ZM12.0639 32.5192L12.3181 32.5919L12.1349 32.7337L11.9144 32.661L12.0602 32.5192H12.0639ZM11.7724 33.5843L12.0266 33.6206L12.1723 33.726L12.2097 33.9732L11.7724 34.0459L11.8098 33.8315L11.7724 33.5843ZM11.9668 41.2834L12.0116 41.436L11.9032 41.5851L11.8322 41.4069L11.8135 41.2288L11.9668 41.2834ZM11.7463 40.171L11.8546 40.0729L11.8995 40.3237L11.75 40.1674L11.7463 40.171ZM11.7724 35.0419H11.9929L11.8472 35.5036L11.7014 35.3982L11.664 35.2201L11.7724 35.0419ZM11.0436 31.6686H11.1894V31.8467H11.0436V31.6686ZM10.8231 35.9652L11.1894 36.107L11.081 36.2488L10.8605 36.2124L10.8231 35.9652ZM11.0511 40.0729L10.954 39.9202L11.1595 39.9275L11.2567 40.0801L11.0511 40.0729ZM11.0436 34.7911L11.152 34.613L11.2978 34.4349L11.4062 34.5076L11.4435 34.722L11.0436 34.7947V34.7911ZM11.7014 44.5876L11.6005 44.4822L11.836 44.3623L11.9369 44.4677L11.7014 44.5876ZM12.0415 44.4713L12.049 44.2714L12.2508 44.3768L12.0415 44.4713ZM12.0751 43.468V43.319L12.2284 43.4753H12.0751V43.468ZM12.1125 42.363L11.9107 42.2576L11.9705 42.0576L12.2732 42.2685L12.1163 42.363H12.1125ZM12.3218 34.6094L12.3965 34.4312L12.6881 34.6457L12.5797 34.7875L12.3965 34.7511L12.3218 34.6094ZM12.8712 35.8526L12.7628 35.9943L12.617 35.8526H12.8712ZM12.6881 37.3793L12.6133 37.4847L12.5386 37.2375L12.6843 37.3793H12.6881ZM12.6881 38.5498L12.8712 38.6225L12.7628 38.7643L12.617 38.6916L12.6918 38.5498H12.6881ZM12.7964 43.588L12.7516 43.4353L12.9086 43.3917L12.9534 43.5444L12.7964 43.588ZM13.0394 42.4393L13.2262 42.2685L13.2972 42.4975L13.0618 42.6174L13.0431 42.4393H13.0394ZM13.1926 43.3226L13.2935 43.4281L13.1851 43.5262L13.0842 43.4208L13.1926 43.3226ZM13.2711 45.4019H13.0879L13.1627 45.2601H13.3458L13.2711 45.4019ZM13.5252 39.7893L13.3421 39.8257L13.3795 39.6839H13.6336L13.5252 39.7893ZM13.7793 36.9467L13.5588 36.9104L13.4841 36.7686V36.5541L13.6672 36.5905L13.7756 36.7322V36.9467H13.7793ZM14.1082 44.4277L13.9999 44.5767L13.8167 44.6458L13.798 44.4677L14.1157 44.275V44.4241L14.1082 44.4277ZM14.1867 43.5771L14.0634 43.4462L14.1718 43.3481L14.2951 43.4789L14.1867 43.5771ZM14.325 37.5501L13.9587 37.4774L14.0297 37.263L14.1755 37.1903L14.3213 37.263V37.5465L14.325 37.5501ZM16.2235 39.2913L16.5524 39.6803L16.2235 39.753L16.1488 39.5385L16.2235 39.2913ZM15.3453 35.8816L15.4537 35.7762L15.8535 36.0598L15.8162 36.2379L15.2668 36.0234L15.3415 35.8816H15.3453ZM14.9454 35.3473L15.0538 35.1692L15.1995 35.3109L15.0911 35.489L14.908 35.5617L14.9454 35.3473ZM14.908 36.4851L15.1285 36.5578L14.9828 36.9467L14.7996 36.7686L14.7249 36.5541L14.908 36.4814V36.4851ZM14.7996 38.0845L14.908 38.299H14.7249L14.7996 38.0845ZM14.7249 40.8908L14.8706 40.749L15.0538 40.8217L14.8706 40.9635L14.7249 40.8908ZM14.8819 47.5175L14.9641 47.3939L15.1659 47.4993L14.8819 47.5139V47.5175ZM15.1846 45.391L15.2145 45.2165L15.3378 45.4455L15.1846 45.391ZM15.5284 38.757V38.5425L15.6742 38.4698L15.8947 38.6116L15.7863 38.7533H15.5321L15.5284 38.757ZM16.0367 44.6131L15.861 44.4313L16.1189 44.4386L16.2422 44.6167L16.0367 44.6095V44.6131ZM16.444 45.5037L16.2983 45.431L16.2235 45.2529L16.5524 45.3946L16.6272 45.5727L16.444 45.5V45.5037ZM16.2235 40.8144L16.3319 40.6727L16.5524 40.709L16.6272 40.8871L16.2273 40.8144H16.2235ZM17.2102 41.9159L17.0271 41.9522L16.9523 41.7377L17.0271 41.5233L17.3186 41.8068L17.2102 41.9122V41.9159ZM17.1018 40.5309L16.9561 40.3891L16.9187 40.1419L17.3933 40.3564L17.1018 40.5345V40.5309ZM17.1766 37.372L17.1018 37.1575L17.3223 37.1939L17.3971 37.372H17.1766ZM17.5764 38.0809L17.6512 37.8337L17.7259 38.0809H17.5802H17.5764ZM17.9427 41.1343L17.7222 40.9926L17.6475 40.7454L17.868 40.7817L17.9427 40.9235V41.138V41.1343ZM18.4921 43.1954H18.3463V43.0536H18.4921V43.1954ZM18.4921 41.8831L18.6005 41.7414L18.7836 41.7777L18.821 41.9558L18.4921 41.8831ZM18.6378 40.4255L18.4173 40.3528L18.5257 40.211L18.7088 40.1056H18.8546L18.892 40.3528L18.6378 40.4255ZM19.6245 41.2761L19.404 41.2034L19.4787 41.0616L19.6245 41.1343V41.2761ZM20.0244 40.0692L20.2449 40.1419L20.1365 40.2837H19.916L20.0244 40.0692ZM20.0244 41.7014L19.916 41.5233L20.2822 41.5596L20.3196 41.7377L20.0281 41.7014H20.0244ZM20.9363 40.9199L20.6074 41.0616L20.5326 40.8144L20.7531 40.7417H21.0073L20.9325 40.9199H20.9363ZM21.5567 41.7377H21.4109V41.5233L21.6314 41.596L21.5567 41.7377ZM22.2854 41.1343L22.5059 41.2761H22.2854V41.1343Z" fill="white"/>
</svg>
