<svg width="22" height="18" viewBox="0 0 22 18" fill="#fff" xmlns="http://www.w3.org/2000/svg">
<path d="M20.375 15.375C20.9844 15.375 21.5 15.8906 21.5 16.5469C21.5 17.1562 20.9844 17.625 20.375 17.625H1.57812C0.96875 17.625 0.5 17.1562 0.5 16.5C0.5 15.8906 0.96875 15.375 1.57812 15.375H20.375ZM20.375 0.375C20.9844 0.375 21.5 0.984375 21.5 1.54688C21.5 2.15625 20.9844 2.625 20.375 2.625H1.57812C0.96875 2.625 0.5 2.0625 0.5 1.5C0.5 0.890625 0.96875 0.375 1.57812 0.375H20.375ZM20.375 7.875C20.9844 7.875 21.5 8.39062 21.5 9C21.5 9.65625 20.9844 10.125 20.375 10.125H1.57812C0.96875 10.125 0.5 9.65625 0.5 9C0.5 8.39062 0.96875 7.875 1.57812 7.875H20.375Z" fill="#fff"></path>
</svg>