<svg width="103" height="91" viewBox="0 0 103 91" fill="none" xmlns="http://www.w3.org/2000/svg">
<path d="M90.2557 30.0186H80.6497C80.6739 30.3517 80.6739 30.6861 80.6497 31.0192C79.8395 34.9148 78.5102 38.6841 76.6973 42.2261C71.8535 51.4175 65.6837 59.8463 58.386 67.2415L51.1315 74.0957L44.0772 67.1414C36.7427 59.766 30.5536 51.3341 25.7159 42.126C23.8943 38.5702 22.5646 34.7832 21.7634 30.8691C21.6939 30.5894 21.6437 30.3052 21.6133 30.0186H12.0074L0 90.0556H102.263L90.2557 30.0186Z" fill="#FE9627"/>
<path d="M26.1152 25.0154C26.1279 26.6975 26.3124 28.3739 26.6656 30.0185C27.4068 33.4949 28.601 36.8591 30.2178 40.0247C34.8287 48.6815 40.6771 56.6198 47.5785 63.5892L51.1307 67.0914L54.6829 63.5892C61.5842 56.6198 67.4326 48.6815 72.0436 40.0247C73.6603 36.8591 74.8545 33.4949 75.5958 30.0185C75.949 28.3739 76.1334 26.6975 76.1461 25.0154C76.1461 18.3809 73.5105 12.0182 68.8192 7.32685C64.1279 2.63555 57.7652 0 51.1307 0C44.4962 0 38.1334 2.63555 33.4421 7.32685C28.7508 12.0182 26.1152 18.3809 26.1152 25.0154ZM56.1338 30.0185H46.1276V20.0123H56.1338V30.0185Z" fill="#FE9627"/>
</svg>
