<svg width="40" height="40" viewBox="0 0 40 40" fill="none" xmlns="http://www.w3.org/2000/svg">
<rect width="39.4403" height="39.4403" rx="2.25373" fill="black"/>
<path d="M16.0579 7.60638H10.4236C9.67645 7.60638 8.95989 7.90319 8.43157 8.43151C7.90325 8.95983 7.60645 9.67639 7.60645 10.4235V16.0579C7.60645 16.805 7.90325 17.5216 8.43157 18.0499C8.95989 18.5782 9.67645 18.875 10.4236 18.875H16.0579C16.8051 18.875 17.5217 18.5782 18.05 18.0499C18.5783 17.5216 18.8751 16.805 18.8751 16.0579V10.4235C18.8751 9.67639 18.5783 8.95983 18.05 8.43151C17.5217 7.90319 16.8051 7.60638 16.0579 7.60638ZM30.1438 7.60638H24.5094C23.7623 7.60638 23.0457 7.90319 22.5174 8.43151C21.9891 8.95983 21.6923 9.67639 21.6923 10.4235V16.0579C21.6923 16.805 21.9891 17.5216 22.5174 18.0499C23.0457 18.5782 23.7623 18.875 24.5094 18.875H30.1438C30.8909 18.875 31.6075 18.5782 32.1358 18.0499C32.6641 17.5216 32.9609 16.805 32.9609 16.0579V10.4235C32.9609 9.67639 32.6641 8.95983 32.1358 8.43151C31.6075 7.90319 30.8909 7.60638 30.1438 7.60638ZM16.0579 21.6922H10.4236C9.67645 21.6922 8.95989 21.989 8.43157 22.5173C7.90325 23.0457 7.60645 23.7622 7.60645 24.5094V30.1437C7.60645 30.8909 7.90325 31.6074 8.43157 32.1357C8.95989 32.6641 9.67645 32.9609 10.4236 32.9609H16.0579C16.8051 32.9609 17.5217 32.6641 18.05 32.1357C18.5783 31.6074 18.8751 30.8909 18.8751 30.1437V24.5094C18.8751 23.7622 18.5783 23.0457 18.05 22.5173C17.5217 21.989 16.8051 21.6922 16.0579 21.6922ZM30.1438 21.6922H24.5094C23.7623 21.6922 23.0457 21.989 22.5174 22.5173C21.9891 23.0457 21.6923 23.7622 21.6923 24.5094V30.1437C21.6923 30.8909 21.9891 31.6074 22.5174 32.1357C23.0457 32.6641 23.7623 32.9609 24.5094 32.9609H30.1438C30.8909 32.9609 31.6075 32.6641 32.1358 32.1357C32.6641 31.6074 32.9609 30.8909 32.9609 30.1437V24.5094C32.9609 23.7622 32.6641 23.0457 32.1358 22.5173C31.6075 21.989 30.8909 21.6922 30.1438 21.6922Z" fill="white"/>
</svg>
