<svg width="100" height="91" viewBox="0 0 100 91" fill="none" xmlns="http://www.w3.org/2000/svg">
<mask id="mask0_77_2727" style="mask-type:luminance" maskUnits="userSpaceOnUse" x="0" y="0" width="100" height="91">
<path d="M93.433 0H5.62847C2.51995 0 0 2.51995 0 5.62847V84.4271C0 87.5356 2.51995 90.0556 5.62847 90.0556H93.433C96.5415 90.0556 99.0615 87.5356 99.0615 84.4271V5.62847C99.0615 2.51995 96.5415 0 93.433 0Z" fill="white"/>
</mask>
<g mask="url(#mask0_77_2727)">
<path d="M87.0032 61.142L86.8529 60.7736C85.3205 56.9995 83.7357 53.0964 81.8678 49.4078C76.3463 38.5049 70.6553 27.4592 65.1519 16.7773C63.536 13.6404 61.92 10.5035 60.3056 7.36647C59.7726 6.29212 59.175 5.25128 58.5155 4.24974C56.9072 1.88987 54.797 0.743731 52.237 0.846064C49.9913 0.751096 48.0506 1.59596 46.2569 2.47155L44.7423 3.21124C37.4428 6.77254 29.8948 10.4567 22.5176 14.1731C19.9351 15.4744 17.2527 17.0106 15.1307 19.4184C14.1858 20.4145 13.5189 21.6409 13.1963 22.9754C12.8737 24.3098 12.9068 25.7056 13.2924 27.0232L13.3668 27.3175C13.4833 27.8444 13.6427 28.3607 13.8433 28.8616C14.5277 30.4425 15.2195 32.02 15.9187 33.5941C16.7886 35.5658 17.6879 37.6056 18.5492 39.6187C21.0655 45.6312 23.9078 51.5016 27.0635 57.2046C29.0856 60.8019 30.7221 63.782 32.2142 66.5855C33.263 68.5563 34.2958 70.5365 35.3286 72.516C37.0818 75.877 38.8944 79.3522 40.7614 82.7257C41.8208 84.5537 43.0971 86.2469 44.563 87.7681C45.1926 88.4747 45.9671 89.0373 46.8336 89.4171C47.7002 89.7969 48.6388 89.9859 49.5848 89.9697C50.1542 89.9678 50.7224 89.9129 51.282 89.8063C54.5367 89.192 57.4941 87.8149 59.9576 86.5469C65.7513 83.5658 71.4249 80.5328 76.8228 77.5317C79.2084 76.2051 81.5422 74.6977 83.8006 73.2401C84.3881 72.8609 84.9768 72.4823 85.5656 72.1044C87.7191 70.7273 88.5904 68.6305 88.1557 65.8732C87.9518 64.2579 87.5657 62.6706 87.0032 61.142ZM84.4991 67.4199C84.5459 68.2656 84.1529 68.9392 83.2985 69.4781C82.5233 69.9695 81.7518 70.4641 80.9797 70.9599C78.9059 72.2927 76.7636 73.6711 74.5807 74.8897C68.5491 78.2651 63.6108 80.9026 59.0447 83.1915C56.9804 84.1614 54.849 84.9821 52.6676 85.6476C52.2582 85.7836 51.8489 85.9208 51.4396 86.0567C49.7485 86.6268 48.2098 86.1334 46.9896 84.6298C46.306 83.7884 45.6453 82.9165 44.9461 81.9928C44.4894 81.3899 44.6669 80.5215 45.3235 80.1459C48.8273 78.1418 52.3013 76.0924 55.6742 74.1033C62.9131 69.8336 69.8298 65.7535 77.0665 62.0404C79.9146 60.5791 83.535 61.8631 84.179 64.9988C84.3411 65.7885 84.4537 66.5952 84.4991 67.4187V67.4199ZM80.1845 54.6699C80.5224 55.3942 80.2185 56.2568 79.5007 56.6085C70.9037 60.8215 62.6538 65.7992 54.6619 70.6188C50.9645 72.8497 47.1494 75.1511 43.3269 77.361C42.9681 77.5685 42.5089 77.4442 42.3009 77.0857C42.0116 76.5862 41.7615 76.1546 41.5363 75.7143L40.3622 73.4185C38.0519 68.9031 35.6639 64.2336 33.3371 59.6304L31.7386 56.4678C27.7623 48.6026 23.6508 40.4698 19.6707 32.4393C19.0469 31.1038 18.5121 29.7285 18.0697 28.3225C17.8946 27.8063 17.7193 27.2901 17.5376 26.7784C16.7942 24.7071 17.324 22.9147 19.069 21.5941C20.8236 20.2261 22.6914 19.0101 24.6524 17.9591C30.4729 14.9422 36.4375 11.9631 42.2059 9.08209L44.8917 7.74024C47.0133 6.67968 48.6544 5.92313 50.2132 5.28742C50.9168 4.97657 51.6745 4.80481 52.4437 4.78151C53.8567 4.78151 54.9571 5.54122 55.8773 7.10247C58.003 10.7096 59.9707 14.2942 61.7239 17.7557C66.1716 26.5365 70.6478 35.4889 74.9749 44.1461L78.7606 51.7165C79.2421 52.6777 79.6999 53.6453 80.1845 54.6699Z" fill="#FE9627"/>
<path d="M28.1395 73.0775C27.4436 72.9484 26.7356 72.8947 26.0281 72.9178C25.2774 72.9378 24.5136 72.9927 23.7768 73.0463C22.3831 73.1866 20.9801 73.2097 19.5826 73.1161C12.8059 72.4563 8.31338 69.3279 6.22979 63.8183C2.99598 55.2633 4.30952 47.322 10.1386 40.2183C10.2151 40.1249 10.2954 40.0332 10.3756 39.9412C10.6403 39.6643 10.8658 39.3525 11.0457 39.0143C11.1686 38.7978 11.2273 38.5506 11.215 38.3019C11.2028 38.0531 11.1201 37.813 10.9766 37.6095C10.8329 37.4061 10.6344 37.2477 10.4041 37.1527C10.1738 37.0579 9.92135 37.0304 9.67606 37.0737C9.14481 37.1169 8.63844 37.3174 8.22164 37.6496C7.97934 37.8645 7.73049 38.0765 7.48245 38.2894C6.52005 39.045 5.65515 39.9172 4.90765 40.8859C0.522734 47.1202 -0.933786 54.0201 0.578329 61.394C2.22308 69.4171 6.94858 74.6223 14.623 76.8713C16.4367 77.3547 18.2827 77.7064 20.1467 77.926C20.9789 78.0438 21.8393 78.1655 22.6768 78.3095L22.7529 78.3228C22.8217 78.3349 22.8877 78.2903 22.9021 78.222C22.9149 78.1615 22.9685 78.1185 23.0303 78.1194C23.2354 78.1226 23.4409 78.1284 23.6461 78.1343C24.3368 78.1717 25.0294 78.1567 25.7178 78.0894C26.7045 77.974 27.6711 77.7258 28.5914 77.3522C29.0643 77.1638 29.4582 76.8189 29.7075 76.3755C29.9567 75.9314 30.0462 75.4156 29.9611 74.9136C29.8599 73.9251 29.23 73.2902 28.1395 73.0775Z" fill="#FE9627"/>
<path d="M74.5342 0.41733C73.8001 0.359789 73.0642 0.488185 72.3937 0.790651C71.8442 1.07351 71.2418 1.80255 71.2561 2.35557C71.2705 2.88772 72.1137 3.50826 72.6532 3.65071C73.3186 3.81097 73.9934 3.9294 74.6732 4.00524C75.2371 4.08015 75.8196 4.15708 76.3765 4.28397C80.7404 5.28032 85.3057 6.6197 89.1301 9.64641C91.5731 11.4939 93.2408 14.1836 93.8109 17.1926C94.5674 21.0311 94.2243 24.3377 92.7618 27.3035C92.0346 28.7771 91.2132 30.2381 90.4187 31.6511C89.9946 32.4052 89.5705 33.1592 89.1576 33.9193C89.0385 34.1395 88.9118 34.3585 88.789 34.5775C88.3674 35.2653 88.015 35.9936 87.7387 36.7515C87.4431 37.6578 87.0383 38.8993 88.3686 40.1135C88.4419 40.1806 88.5524 40.1872 88.6331 40.1291C88.9611 39.8941 89.2985 39.6767 89.626 39.4667C90.3407 39.0572 90.9949 38.5493 91.5681 37.9579C93.7859 35.4331 96.4977 31.9896 97.7962 27.7382C100.27 19.6393 98.7473 12.861 93.2701 7.59027C88.7166 3.20781 82.5884 0.862286 74.5342 0.41733Z" fill="#FE9627"/>
<path d="M78.1505 28.9318C78.0239 29.0743 77.9472 29.2545 77.9328 29.4447C77.9378 29.6023 77.9328 29.7742 77.9285 29.9485C77.9123 30.5454 77.896 31.1627 78.2341 31.4897C78.5802 31.7522 79.0093 31.8811 79.4434 31.8528C79.7527 31.8561 80.0602 31.8049 80.3515 31.7018C81.8271 31.141 82.8287 29.9547 83.3277 28.1761C84.1054 25.4093 83.6177 22.1314 82.0279 19.4067C81.166 17.9493 80.0178 16.6818 78.6519 15.681C77.2867 14.6801 75.7325 13.9666 74.0829 13.5838C73.0288 13.3851 71.9486 13.3626 70.8865 13.5171C70.6433 13.5196 70.4044 13.5774 70.1867 13.6861C69.9703 13.7947 69.7801 13.9514 69.6323 14.1442C69.3541 14.5564 69.3248 15.143 69.5462 15.888C69.5688 15.9634 69.6322 16.0199 69.7096 16.0341C69.9996 16.0874 70.2772 16.1344 70.5453 16.1798C71.0861 16.2716 71.5969 16.3588 72.0927 16.4762C75.2298 17.2221 77.6646 19.1214 78.7723 21.6864C79.2563 22.8255 79.4615 24.0639 79.3704 25.2983C79.28 26.5328 78.8952 27.7277 78.2497 28.7836C78.221 28.8332 78.186 28.8822 78.1505 28.9318Z" fill="#FE9627"/>
<path d="M17.3561 49.8112C17.6664 49.2406 18.052 48.5299 17.174 47.9036C16.6934 47.5606 15.9324 47.3596 15.0396 48.3498C14.4452 48.9716 13.9607 49.6901 13.6069 50.474C11.7238 55.0332 12.2278 59.3833 15.1092 63.403C16.8403 65.8185 19.1965 67.0334 22.3137 67.1157C22.3297 67.1157 22.3457 67.1141 22.3614 67.1108L22.362 67.1107C22.4725 67.0883 22.6133 67.0646 22.7754 67.0378C23.387 66.9486 23.9904 66.8107 24.5802 66.6261C24.8045 66.5581 25.0122 66.4446 25.1906 66.2925C25.3691 66.1403 25.5144 65.9532 25.6175 65.743C25.6907 65.5777 25.7281 65.4 25.7271 65.2191C25.7261 65.0395 25.6868 64.8611 25.6118 64.6971C25.2816 64.1439 24.7594 63.7304 24.1447 63.537C23.8372 63.4479 23.5148 63.4229 23.1974 63.4634C22.9539 63.4921 22.7076 63.4828 22.4672 63.4348L22.1029 63.3368C21.1032 63.1129 20.1345 62.768 19.2185 62.309C17.6799 61.446 16.9839 59.8344 16.5062 58.3714C16.0466 57.0001 15.8759 55.5481 16.0048 54.1077C16.1336 52.6672 16.5593 51.2689 17.255 50.0007L17.3561 49.8112Z" fill="#FE9627"/>
<path d="M66.7554 70.5708C65.9184 70.5527 65.107 70.8639 64.4977 71.4384C64.2694 71.6311 64.0817 71.8681 63.9464 72.1338C63.8104 72.4001 63.7281 72.6907 63.7056 72.9888C63.695 73.267 63.7399 73.5445 63.8391 73.8046C63.9376 74.0653 64.0886 74.3029 64.2819 74.5031C64.5438 74.7594 64.8551 74.9615 65.1956 75.0969C65.5367 75.2322 65.901 75.2983 66.2677 75.2921H66.3238C67.0205 75.3058 67.6934 75.0426 68.1961 74.5605C68.4269 74.3304 68.6084 74.0553 68.7306 73.7528C68.8528 73.4503 68.9133 73.1267 68.9071 72.8005C68.9084 72.2217 68.6845 71.666 68.2828 71.25C67.8812 70.834 67.3336 70.5901 66.7554 70.5708Z" fill="#FE9627"/>
</g>
</svg>
