<svg width="26" height="20" viewBox="0 0 26 20" fill="none" xmlns="http://www.w3.org/2000/svg">
<path d="M15.7441 1.42128V4.2573C15.7446 4.26403 15.7482 4.26977 15.7482 4.27661C15.7482 4.28343 15.7446 4.28918 15.7441 4.29591V10.1776C15.7441 10.9613 16.4013 11.5988 17.2091 11.5988H23.7738C24.5821 11.5988 25.2392 10.9613 25.2392 10.1776V1.42128C25.2392 0.637631 24.5821 0.00012207 23.7738 0.00012207H17.2091C16.4013 0.000130952 15.7441 0.637631 15.7441 1.42128ZM19.3412 4.27844C19.7702 4.0828 20.1451 3.8458 20.466 3.56748C20.787 3.28923 21.0143 3.01916 21.1478 2.75738H21.642V8.84163H20.8751V4.10069C20.6904 4.27155 20.4481 4.44242 20.1488 4.61324C19.8488 4.7841 19.5798 4.9122 19.3412 4.99764L19.3412 4.27844Z" fill="#FE9627"/>
<path d="M4.43148 15.5119C3.74975 15.5119 3.19542 14.9776 3.19542 14.3215V8.26435V7.64246H1.09882C0.493087 7.64246 0 8.1208 0 8.70844V16.4357C0 17.0233 0.493078 17.5012 1.09882 17.5012H1.95668L1.82302 18.9388C1.81184 19.0616 1.87622 19.1795 1.98798 19.239C2.03625 19.265 2.08945 19.2776 2.14221 19.2776C2.21149 19.2776 2.28034 19.2559 2.33756 19.2129L4.49585 17.6031C4.58392 17.5372 4.693 17.5012 4.80297 17.5012H13.8885C14.4894 17.5012 14.9784 17.0272 14.9784 16.4444V15.512H14.3374L4.43148 15.5119Z" fill="#FE9627"/>
<path d="M20.1695 12.2208H17.2097C16.0483 12.2208 15.1037 11.3044 15.1037 10.1777V4.58765H4.43289C4.11013 4.58765 3.83789 4.8561 3.83789 5.17354V14.3215C3.83789 14.635 4.10477 14.89 4.43289 14.89H15.5105C15.5787 14.89 15.6386 14.9153 15.6906 14.9507C15.6952 14.9538 15.7013 14.9512 15.7058 14.9547L17.9343 16.6161L18.6254 17.1101L18.4716 15.5119H19.557C20.2388 15.5119 20.7931 14.9777 20.7931 14.3241L20.8106 12.2208L20.1695 12.2208Z" fill="#FE9627"/>
</svg>
