<svg width="25" height="25" viewBox="0 0 25 25" fill="none" xmlns="http://www.w3.org/2000/svg">
<path d="M22.0937 4.39666V4.14258C22.0937 1.85449 20.2393 0 17.9512 0C15.6631 0 13.8086 1.85449 13.8086 4.14258H11.0469C11.0469 1.85449 9.19238 0 6.9043 0C4.61621 0 2.76172 1.85449 2.76172 4.14258V4.39666C1.15854 4.96971 0 6.48728 0 8.28516V20.7129C0 22.9968 1.85864 24.8555 4.14258 24.8555H20.7129C22.9968 24.8555 24.8555 22.9968 24.8555 20.7129V8.28516C24.8555 6.48728 23.6969 4.96971 22.0937 4.39666ZM16.5703 4.14258C16.5703 3.38034 17.1876 2.76172 17.9512 2.76172C18.7148 2.76172 19.332 3.38034 19.332 4.14258V6.9043C19.332 7.66653 18.7148 8.28516 17.9512 8.28516C17.1876 8.28516 16.5703 7.66653 16.5703 6.9043V4.14258ZM5.52344 4.14258C5.52344 3.38034 6.14068 2.76172 6.9043 2.76172C7.66791 2.76172 8.28516 3.38034 8.28516 4.14258V6.9043C8.28516 7.66653 7.66791 8.28516 6.9043 8.28516C6.14068 8.28516 5.52344 7.66653 5.52344 6.9043V4.14258ZM22.0937 20.7129C22.0937 21.4737 21.4751 22.0937 20.7129 22.0937H4.14258C3.38034 22.0937 2.76172 21.4737 2.76172 20.7129V12.4277H22.0937V20.7129ZM22.0937 11.0469H2.76172V8.28516C2.76172 7.5243 3.38034 6.9043 4.14258 6.9043C4.14258 8.42877 5.37983 9.66601 6.9043 9.66601C8.42877 9.66601 9.66601 8.42877 9.66601 6.9043H15.1895C15.1895 8.42877 16.4267 9.66601 17.9512 9.66601C19.4756 9.66601 20.7129 8.42877 20.7129 6.9043C21.4751 6.9043 22.0937 7.5243 22.0937 8.28516V11.0469Z" fill="#FE9627"/>
</svg>
