<svg width="91" height="91" viewBox="0 0 91 91" fill="none" xmlns="http://www.w3.org/2000/svg">
<path d="M88.8945 31.4961L75.9782 22.041V14.0773C75.9782 13.331 75.6817 12.6153 75.154 12.0875C74.6263 11.5598 73.9105 11.2633 73.1642 11.2633H61.2891L46.6844 0.541969C46.2025 0.189801 45.621 0 45.0241 0C44.4272 0 43.8458 0.189801 43.3639 0.541969L28.7592 11.2633H16.8841C16.1377 11.2633 15.422 11.5598 14.8943 12.0875C14.3665 12.6153 14.07 13.331 14.07 14.0773V22.041L1.15375 31.4961C0.795255 31.758 0.503835 32.1011 0.303312 32.4973C0.10279 32.8934 -0.00114243 33.3314 9.47142e-06 33.7754V81.6135C9.47142e-06 83.8525 0.889434 85.9998 2.47262 87.5829C4.05581 89.1661 6.20307 90.0556 8.44203 90.0556H81.6062C83.8452 90.0556 85.9925 89.1661 87.5756 87.5829C89.1588 85.9998 90.0482 83.8525 90.0482 81.6135V33.7754C90.0494 33.3314 89.9455 32.8934 89.7449 32.4973C89.5444 32.1011 89.253 31.758 88.8945 31.4961ZM75.9782 29.0197L82.169 33.5503L75.9782 37.2366V29.0197ZM45.0241 6.31069L51.7777 11.2633H38.2705L45.0241 6.31069ZM19.6981 16.8914H70.3502V40.6134L45.0241 55.8091L19.6981 40.6134V16.8914ZM14.07 29.0197V37.2648L7.87923 33.5503L14.07 29.0197ZM84.4202 81.6135C84.4202 82.3598 84.1238 83.0756 83.596 83.6033C83.0683 84.1311 82.3525 84.4275 81.6062 84.4275H8.44203C7.69571 84.4275 6.97996 84.1311 6.45223 83.6033C5.9245 83.0756 5.62802 82.3598 5.62802 81.6135V38.7562L43.589 61.5215C44.0168 61.7685 44.502 61.8985 44.996 61.8985C45.49 61.8985 45.9752 61.7685 46.403 61.5215L84.4202 38.7562V81.6135Z" fill="#FE9627"/>
</svg>
