<svg width="40" height="28" viewBox="0 0 40 28" fill="none" xmlns="http://www.w3.org/2000/svg">
<path fill-rule="evenodd" clip-rule="evenodd" d="M0 2.46564V25.7105C0 26.9751 0.910157 28 2.16406 28H37.8359C39.0885 28 40 26.9632 40 25.7105V2.46564C40 1.07789 39.1849 0 37.8359 0H2.16406C0.763021 0 0 1.10437 0 2.46564ZM3.28906 4.49033C3.28906 3.9302 3.6224 3.60974 4.15495 3.60974C4.48437 3.60974 17.4466 11.9627 18.2318 12.4527L20.2604 13.7358C20.9036 13.2975 21.5495 12.9228 22.2161 12.4686C23.5768 11.584 35.6836 3.60974 36.0169 3.60974C36.5508 3.60974 36.8828 3.9302 36.8828 4.49033C36.8828 5.08356 35.7591 5.67283 35.0273 6.12703C30.4297 8.97668 25.8333 12.0832 21.2812 15.0388C21.0156 15.2216 20.5013 15.6122 20.1159 15.5526C19.6862 15.4851 6.49609 6.86725 4.09635 5.43183C3.73568 5.21598 3.28906 5.01868 3.28906 4.49033Z" fill="white"/>
</svg>
