<svg width="91" height="91" viewBox="0 0 91 91" fill="none" xmlns="http://www.w3.org/2000/svg">
<circle cx="45.5" cy="45.5" r="37.5" fill="white"/>
<path d="M31.9451 50.166L54.8372 50.1685C55.0539 50.526 55.3191 50.8579 55.6306 51.1535L57.1276 52.5746C56.9493 53.2675 56.6587 53.9623 56.2514 54.6631C55.8395 55.3712 55.3637 55.9902 54.8214 56.5246L53.1666 55.9729C51.2201 55.3237 49.1066 56.0675 47.9429 57.7771L46.4397 59.9854C45.1299 61.91 45.3631 64.5391 47.0016 66.1841L47.4756 66.6591C46.3474 66.7766 45.161 66.835 43.9168 66.835C37.8971 66.835 33.2329 65.4671 29.9769 62.6679C28.2506 61.1837 27.2576 59.0204 27.2576 56.7437V54.8535C27.2576 52.2648 29.3562 50.166 31.9451 50.166ZM56.4387 46.51L57.4872 44.0373C57.9791 42.8777 59.157 42.2468 60.3122 42.4875L60.5591 42.5525L61.8722 42.9721C63.1741 43.3881 64.1712 44.5035 64.4933 45.9039C65.2585 49.2325 64.3404 53.2848 61.7391 58.061C59.1414 62.8304 56.2945 65.6981 53.1979 66.6639C51.9956 67.0389 50.7041 66.7664 49.7324 65.9508L49.4758 65.715L48.4785 64.7137C47.6143 63.8462 47.4362 62.4735 48.0158 61.3998L48.1629 61.1577L49.666 58.9493C50.2574 58.0804 51.2691 57.6693 52.2439 57.8771L52.5085 57.9491L55.2833 58.8745C56.3908 58.0364 57.3139 56.9816 58.0533 55.7102C58.6868 54.6204 59.1014 53.5158 59.2966 52.3964L59.376 51.8354L57.0656 49.6425C56.3045 48.9202 56.0281 47.7952 56.3391 46.7829L56.4387 46.51ZM43.9168 25.1758C49.6697 25.1758 54.3335 29.8395 54.3335 35.5924C54.3335 41.3454 49.6697 46.0091 43.9168 46.0091C38.1639 46.0091 33.5002 41.3454 33.5002 35.5924C33.5002 29.8395 38.1639 25.1758 43.9168 25.1758Z" fill="black"/>
<circle cx="45.5" cy="45.5" r="45" stroke="white"/>
</svg>
