<svg width="91" height="91" viewBox="0 0 91 91" fill="none" xmlns="http://www.w3.org/2000/svg">
<circle cx="45.5" cy="45.5" r="37.5" fill="white"/>
<path d="M53.2812 59.125C53.2812 60.8594 51.875 62.2656 50.1406 62.2656H29.3594C27.625 62.2656 26.2188 60.8594 26.2188 59.125V45.625C26.2188 43.8906 27.625 42.4844 29.3594 42.4844H50.1406C51.875 42.4844 53.2812 43.8906 53.2812 45.625V59.125Z" fill="white"/>
<path d="M62.8484 46.8825H41.6515C40.0343 46.8825 38.7234 45.5716 38.7234 43.9544V32.6669C38.7234 31.0497 40.0343 29.7388 41.6515 29.7388H62.8468C64.464 29.7388 65.775 31.0497 65.775 32.6669V43.9544C65.775 45.5716 64.464 46.8825 62.8484 46.8825Z" fill="white"/>
<path d="M52.25 41.7246C54.1355 41.7246 55.6641 40.1961 55.6641 38.3105C55.6641 36.425 54.1355 34.8965 52.25 34.8965C50.3645 34.8965 48.8359 36.425 48.8359 38.3105C48.8359 40.1961 50.3645 41.7246 52.25 41.7246Z" fill="white"/>
<path d="M53.2812 50.9359C52.5047 50.9359 51.875 51.5656 51.875 52.3422V59.125C51.875 60.0812 51.0984 60.8578 50.1422 60.8578H29.3594C28.4031 60.8578 27.6266 60.0812 27.6266 59.125V50.1406H34.7656C35.5422 50.1406 36.1719 49.5109 36.1719 48.7344C36.1719 47.9578 35.5422 47.3281 34.7656 47.3281H27.625V45.625C27.625 44.6687 28.4016 43.8906 29.3578 43.8906H33.2484C34.025 43.8906 34.6547 43.2609 34.6547 42.4844C34.6547 41.7078 34.025 41.0781 33.2484 41.0781H29.3594C26.8531 41.0781 24.8125 43.1172 24.8125 45.625V59.125C24.8125 61.6312 26.8531 63.6719 29.3594 63.6719H50.1406C52.6469 63.6719 54.6875 61.6312 54.6875 59.125V52.3437C54.6891 51.5672 54.0578 50.9359 53.2812 50.9359Z" fill="black"/>
<path d="M32.4048 53.7012C31.6282 53.7012 30.9985 54.3309 30.9985 55.1074C30.9985 55.884 31.6282 56.5137 32.4048 56.5137H36.4454C37.222 56.5137 37.8517 55.884 37.8517 55.1074C37.8517 54.3309 37.222 53.7012 36.4454 53.7012H32.4048Z" fill="black"/>
<path d="M41.6532 48.2888H62.847C65.236 48.2888 67.1813 46.3435 67.1813 43.9544V32.6669C67.1813 30.2763 65.236 28.3325 62.847 28.3325H41.6532C39.2642 28.3325 37.3188 30.2763 37.3188 32.6669V43.9544C37.3173 46.3435 39.2626 48.2888 41.6532 48.2888ZM40.1313 32.6669C40.1313 31.8278 40.8142 31.145 41.6532 31.145H62.847C63.686 31.145 64.3688 31.8278 64.3688 32.6669V43.9544C64.3688 44.7935 63.686 45.4763 62.847 45.4763H41.6532C40.8142 45.4763 40.1313 44.7935 40.1313 43.9544V32.6669Z" fill="black"/>
<path d="M52.25 43.1312C54.9078 43.1312 57.0703 40.9688 57.0703 38.3109C57.0703 35.6531 54.9078 33.4922 52.25 33.4922C49.5922 33.4922 47.4297 35.6547 47.4297 38.3109C47.4297 40.9688 49.5922 43.1312 52.25 43.1312ZM52.25 36.3031C53.3562 36.3031 54.2562 37.2031 54.2562 38.3109C54.2562 39.4188 53.3562 40.3188 52.25 40.3188C51.1437 40.3188 50.2437 39.4172 50.2437 38.3109C50.2437 37.2047 51.1437 36.3031 52.25 36.3031Z" fill="black"/>
<path d="M25.5312 35.5201V32.3232C25.5312 30.4029 27.0922 28.8404 29.0125 28.8404H32.2234L31.4094 29.6545C30.8594 30.2029 30.8594 31.0936 31.4094 31.642C31.6844 31.917 32.0437 32.0545 32.4047 32.0545C32.7656 32.0545 33.125 31.917 33.4 31.642L36.6141 28.4279C36.8781 28.1654 37.0266 27.8076 37.0266 27.4342C37.0266 27.0607 36.875 26.7029 36.6125 26.4404L33.4 23.2279C32.85 22.6779 31.9594 22.6779 31.4109 23.2279C30.8625 23.7779 30.8609 24.667 31.4109 25.2154L32.2234 26.0279H29.0125C25.5422 26.0279 22.7188 28.8514 22.7188 32.3232V35.5217C22.7188 36.2982 23.3484 36.9279 24.125 36.9279C24.9016 36.9279 25.5312 36.2982 25.5312 35.5201Z" fill="black"/>
<path d="M67.8751 55.0732C67.0985 55.0732 66.4688 55.7029 66.4688 56.4795V59.6764C66.4688 61.5967 64.9079 63.1592 62.9876 63.1592H59.7782L60.5907 62.3467C61.1407 61.7967 61.1407 60.9061 60.5907 60.3576C60.0407 59.8092 59.1501 59.8076 58.6017 60.3576L55.3876 63.5717C54.8376 64.1217 54.8376 65.0123 55.3876 65.5607L58.6017 68.7748C58.8767 69.0498 59.236 69.1873 59.597 69.1873C59.9579 69.1873 60.3173 69.0498 60.5923 68.7748C61.1423 68.2248 61.1423 67.3342 60.5923 66.7857L59.7798 65.9732H62.9892C66.4595 65.9732 69.2829 63.1482 69.2829 59.6779V56.4811C69.2813 55.7029 68.6517 55.0732 67.8751 55.0732Z" fill="black"/>
<circle cx="45.5" cy="45.5" r="45" stroke="white"/>
</svg>
