<svg width="41" height="40" viewBox="0 0 41 40" fill="none" xmlns="http://www.w3.org/2000/svg">
<path d="M16.2541 9.15106C15.7319 3.17683 9.46553 0.245462 9.20033 0.125815C8.95241 0.00990232 8.67458 -0.0271315 8.40472 0.0197632C1.17049 1.21352 0.0823416 5.40119 0.0385972 5.57522C-0.020919 5.81775 -0.0114529 6.07195 0.0659374 6.30943C8.69453 32.9365 26.627 37.872 32.5216 39.4954C32.9754 39.6204 33.35 39.7211 33.6343 39.8135C33.9588 39.919 34.3113 39.8986 34.6213 39.7564C34.8018 39.6748 39.0614 37.6789 40.1031 31.169C40.1493 30.8848 40.1033 30.5933 39.9718 30.3369C39.8789 30.1574 37.6506 25.9398 31.4717 24.4497C31.2621 24.3963 31.0426 24.3945 30.8321 24.4442C30.6216 24.4939 30.4264 24.5938 30.2633 24.7352C28.3139 26.3912 25.6209 28.156 24.4589 28.3382C16.6697 24.5503 12.3199 17.2817 12.1558 15.903C12.0601 15.128 13.8454 12.406 15.8987 10.1925C16.0277 10.0532 16.126 9.88859 16.1873 9.70922C16.2485 9.52985 16.2712 9.33972 16.2541 9.15106Z" fill="white"/>
</svg>
