<svg width="50" height="50" viewBox="0 0 50 50" fill="none" xmlns="http://www.w3.org/2000/svg">
<g clip-path="url(#clip0_43_1966)">
<path fill-rule="evenodd" clip-rule="evenodd" d="M43.8912 0C47.2628 0 50 2.7373 50 6.10879V43.8912C50 47.2627 47.2627 50 43.8912 50H18.4797C19.538 48.2152 20.8822 45.6891 21.4186 43.6266C21.7438 42.3744 23.0858 37.2649 23.0858 37.2649C23.9583 38.929 26.5077 40.3377 29.2193 40.3377C37.2908 40.3377 43.106 32.9153 43.106 23.6924C43.106 14.8518 35.8915 8.23682 26.6082 8.23682C15.0595 8.23682 8.92627 15.9892 8.92627 24.4309C8.92627 28.3559 11.0158 33.2422 14.3582 34.7981C14.8652 35.034 15.1364 34.9301 15.2531 34.4401C15.3419 34.0682 15.7932 32.2506 15.9965 31.4053C16.0614 31.1351 16.0293 30.9026 15.8108 30.6377C14.7051 29.297 13.8192 26.8308 13.8192 24.5307C13.8192 18.6285 18.2887 12.9173 25.9031 12.9173C32.4771 12.9173 37.0813 17.3973 37.0813 23.8045C37.0813 31.0438 33.4253 36.0591 28.6687 36.0591C26.0417 36.0591 24.0755 33.8869 24.7059 31.2231C25.4604 28.042 26.9223 24.6093 26.9223 22.3131C26.9223 20.2577 25.8192 18.5435 23.5362 18.5435C20.8507 18.5435 18.6939 21.3216 18.6939 25.0426C18.6939 27.4127 19.4945 29.0157 19.4945 29.0157C19.4945 29.0157 16.8427 40.2292 16.3566 42.3176C15.8186 44.628 16.0293 47.8822 16.2633 49.9996L16.2644 50H6.10879C2.7373 50 0 47.2627 0 43.8912V6.10879C0 2.7373 2.73721 0 6.10879 0L43.8912 0Z" fill="white"/>
</g>
<defs>
<clipPath id="clip0_43_1966">
<rect width="50" height="50" fill="white"/>
</clipPath>
</defs>
</svg>
