<svg width="40" height="40" viewBox="0 0 40 40" fill="none" xmlns="http://www.w3.org/2000/svg">
<rect width="39.4403" height="39.4403" rx="2.25373" fill="black"/>
<path d="M31.5615 17.8045H7.87969C6.63985 17.8045 5.63477 18.9123 5.63477 20.2836C5.63477 21.6548 6.63985 22.7627 7.87969 22.7627H31.5615C32.8013 22.7627 33.8064 21.6548 33.8064 20.2836C33.8064 18.9123 32.8013 17.8045 31.5615 17.8045ZM31.5615 7.88806H7.87969C6.63985 7.88806 5.63477 8.99591 5.63477 10.3672C5.63477 11.7384 6.63985 12.8463 7.87969 12.8463H31.5615C32.8013 12.8463 33.8064 11.7384 33.8064 10.3672C33.8064 8.99591 32.8013 7.88806 31.5615 7.88806ZM31.5615 27.7209H7.87969C6.63985 27.7209 5.63477 28.8287 5.63477 30.2C5.63477 31.5713 6.63985 32.6791 7.87969 32.6791H31.5615C32.8013 32.6791 33.8064 31.5713 33.8064 30.2C33.8064 28.8287 32.8013 27.7209 31.5615 27.7209Z" fill="white"/>
</svg>
